<?xml version="1.0" encoding="us-ascii" standalone="no"?><svg xmlns="http://www.w3.org/2000/svg" xmlns:xlink="http://www.w3.org/1999/xlink" contentStyleType="text/css" height="1115.8px" preserveAspectRatio="none" style="width:1008px;height:1115px;background:#FFFFFF;" version="1.1" viewBox="0 0 1008 1115" width="1008.7px" zoomAndPan="magnify"><defs/><g><rect fill="#DDDDDD" height="1107.5832" style="stroke:#181818;stroke-width:0.3499999999999999;" width="70" x="218.75" y="4.2"/><text fill="#000000" font-family="sans-serif" font-size="9.1" font-weight="bold" lengthAdjust="spacing" textLength="53.2" x="227.15" y="14.0198">JotunnMods</text><rect fill="#DDDDDD" height="1107.5832" style="stroke:#181818;stroke-width:0.3499999999999999;" width="684.6" x="297.15" y="4.2"/><text fill="#000000" font-family="sans-serif" font-size="9.1" font-weight="bold" lengthAdjust="spacing" textLength="30.1" x="624.4" y="14.0198">Jotunn</text><line style="stroke:#181818;stroke-width:0.3499999999999999;stroke-dasharray:5.0,5.0;" x1="61.6" x2="61.6" y1="45.4385" y2="1107.5832"/><rect fill="#FFFFFF" height="58.5074" style="stroke:#181818;stroke-width:0.6999999999999998;" width="7" x="58.1" y="206.2607"/><rect fill="#FFFFFF" height="58.5074" style="stroke:#181818;stroke-width:0.6999999999999998;" width="7" x="58.1" y="286.6719"/><rect fill="#FFFFFF" height="83.2111" style="stroke:#181818;stroke-width:0.6999999999999998;" width="7" x="58.1" y="367.083"/><rect fill="#FFFFFF" height="58.5074" style="stroke:#181818;stroke-width:0.6999999999999998;" width="7" x="58.1" y="561.709"/><rect fill="#FFFFFF" height="58.5074" style="stroke:#181818;stroke-width:0.6999999999999998;" width="7" x="58.1" y="642.1201"/><rect fill="#FFFFFF" height="58.5074" style="stroke:#181818;stroke-width:0.6999999999999998;" width="7" x="58.1" y="722.5312"/><rect fill="#FFFFFF" height="33.8037" style="stroke:#181818;stroke-width:0.6999999999999998;" width="7" x="58.1" y="802.9424"/><rect fill="#FFFFFF" height="107.9148" style="stroke:#181818;stroke-width:0.6999999999999998;" width="7" x="58.1" y="858.6498"/><rect fill="#FFFFFF" height="33.8037" style="stroke:#181818;stroke-width:0.6999999999999998;" width="7" x="58.1" y="988.4684"/><rect fill="#FFFFFF" height="33.8037" style="stroke:#181818;stroke-width:0.6999999999999998;" width="7" x="58.1" y="1044.1758"/><line style="stroke:#181818;stroke-width:0.3499999999999999;stroke-dasharray:5.0,5.0;" x1="191.8" x2="191.8" y1="45.4385" y2="1107.5832"/><line style="stroke:#181818;stroke-width:0.3499999999999999;stroke-dasharray:5.0,5.0;" x1="253.75" x2="253.75" y1="45.4385" y2="1107.5832"/><rect fill="#90EE90" height="973.8299" style="stroke:#181818;stroke-width:0.6999999999999998;" width="7" x="250.25" y="133.7533"/><line style="stroke:#181818;stroke-width:0.3499999999999999;stroke-dasharray:5.0,5.0;" x1="350.35" x2="350.35" y1="45.4385" y2="1107.5832"/><line style="stroke:#181818;stroke-width:0.3499999999999999;stroke-dasharray:5.0,5.0;" x1="451.85" x2="451.85" y1="45.4385" y2="1107.5832"/><line style="stroke:#181818;stroke-width:0.3499999999999999;stroke-dasharray:5.0,5.0;" x1="542.15" x2="542.15" y1="45.4385" y2="1107.5832"/><line style="stroke:#181818;stroke-width:0.3499999999999999;stroke-dasharray:5.0,5.0;" x1="625.1" x2="625.1" y1="45.4385" y2="1107.5832"/><line style="stroke:#181818;stroke-width:0.3499999999999999;stroke-dasharray:5.0,5.0;" x1="702.45" x2="702.45" y1="45.4385" y2="1107.5832"/><line style="stroke:#181818;stroke-width:0.3499999999999999;stroke-dasharray:5.0,5.0;" x1="778.75" x2="778.75" y1="45.4385" y2="1107.5832"/><line style="stroke:#181818;stroke-width:0.3499999999999999;stroke-dasharray:5.0,5.0;" x1="854" x2="854" y1="45.4385" y2="1107.5832"/><line style="stroke:#181818;stroke-width:0.3499999999999999;stroke-dasharray:5.0,5.0;" x1="936.25" x2="936.25" y1="45.4385" y2="1107.5832"/><rect fill="#E2E2F0" height="22.8348" rx="1.75" ry="1.75" style="stroke:#181818;stroke-width:0.3499999999999999;" width="44.8" x="39.2" y="21.9037"/><text fill="#000000" font-family="sans-serif" font-size="9.8" lengthAdjust="spacing" textLength="35" x="44.1" y="37.3789">Valheim</text><rect fill="#E2E2F0" height="22.8348" rx="1.75" ry="1.75" style="stroke:#181818;stroke-width:0.3499999999999999;" width="45.5" x="169.05" y="21.9037"/><text fill="#000000" font-family="sans-serif" font-size="9.8" lengthAdjust="spacing" textLength="35.7" x="173.95" y="37.3789">BepInEx</text><rect fill="#E2E2F0" height="22.8348" style="stroke:#181818;stroke-width:0.3499999999999999;" width="58.1" x="226.1" y="19.1037"/><rect fill="#E2E2F0" height="22.8348" style="stroke:#181818;stroke-width:0.3499999999999999;" width="58.1" x="223.3" y="21.9037"/><text fill="#000000" font-family="sans-serif" font-size="9.8" lengthAdjust="spacing" textLength="48.3" x="228.2" y="37.3789">JotunnMod</text><rect fill="#E2E2F0" height="22.8348" rx="1.75" ry="1.75" style="stroke:#181818;stroke-width:0.3499999999999999;" width="100.8" x="299.95" y="21.9037"/><text fill="#000000" font-family="sans-serif" font-size="9.8" lengthAdjust="spacing" textLength="91" x="304.85" y="37.3789">LocalizationManager</text><rect fill="#E2E2F0" height="22.8348" rx="1.75" ry="1.75" style="stroke:#181818;stroke-width:0.3499999999999999;" width="88.2" x="407.75" y="21.9037"/><text fill="#000000" font-family="sans-serif" font-size="9.8" lengthAdjust="spacing" textLength="78.4" x="412.65" y="37.3789">CreatureManager</text><rect fill="#E2E2F0" height="22.8348" rx="1.75" ry="1.75" style="stroke:#181818;stroke-width:0.3499999999999999;" width="78.4" x="502.95" y="21.9037"/><text fill="#000000" font-family="sans-serif" font-size="9.8" lengthAdjust="spacing" textLength="68.6" x="507.85" y="37.3789">PrefabManager</text><rect fill="#E2E2F0" height="22.8348" rx="1.75" ry="1.75" style="stroke:#181818;stroke-width:0.3499999999999999;" width="73.5" x="588.35" y="21.9037"/><text fill="#000000" font-family="sans-serif" font-size="9.8" lengthAdjust="spacing" textLength="63.7" x="593.25" y="37.3789">PieceManager</text><rect fill="#E2E2F0" height="22.8348" rx="1.75" ry="1.75" style="stroke:#181818;stroke-width:0.3499999999999999;" width="67.2" x="668.85" y="21.9037"/><text fill="#000000" font-family="sans-serif" font-size="9.8" lengthAdjust="spacing" textLength="57.4" x="673.75" y="37.3789">ItemManager</text><rect fill="#E2E2F0" height="22.8348" rx="1.75" ry="1.75" style="stroke:#181818;stroke-width:0.3499999999999999;" width="71.4" x="743.05" y="21.9037"/><text fill="#000000" font-family="sans-serif" font-size="9.8" lengthAdjust="spacing" textLength="61.6" x="747.95" y="37.3789">ZoneManager</text><rect fill="#E2E2F0" height="22.8348" rx="1.75" ry="1.75" style="stroke:#181818;stroke-width:0.3499999999999999;" width="65.1" x="821.45" y="21.9037"/><text fill="#000000" font-family="sans-serif" font-size="9.8" lengthAdjust="spacing" textLength="55.3" x="826.35" y="37.3789">GUIManager</text><rect fill="#E2E2F0" height="22.8348" rx="1.75" ry="1.75" style="stroke:#181818;stroke-width:0.3499999999999999;" width="85.4" x="893.55" y="21.9037"/><text fill="#000000" font-family="sans-serif" font-size="9.8" lengthAdjust="spacing" textLength="75.6" x="898.45" y="37.3789">MinimapManager</text><path d="M28,53.8385 L121.1,53.8385 L121.1,60.3422 L114.1,67.3422 L28,67.3422 L28,53.8385 " fill="#EEEEEE" style="stroke:#000000;stroke-width:1.0499999999999998;"/><rect fill="none" height="85.5148" style="stroke:#000000;stroke-width:1.0499999999999998;" width="277.55" x="28" y="53.8385"/><text fill="#000000" font-family="sans-serif" font-size="9.1" font-weight="bold" lengthAdjust="spacing" textLength="61.6" x="38.5" y="64.3583">For each mod</text><polygon fill="#181818" points="245.35,99.9496,252.35,102.7496,245.35,105.5496,248.15,102.7496" style="stroke:#181818;stroke-width:0.6999999999999998;"/><line style="stroke:#181818;stroke-width:0.6999999999999998;" x1="194.95" x2="249.55" y1="102.7496" y2="102.7496"/><text fill="#000000" font-family="sans-serif" font-size="9.1" lengthAdjust="spacing" textLength="42" x="199.85" y="86.962">Loaded by</text><text fill="#000000" font-family="sans-serif" font-size="9.1" lengthAdjust="spacing" textLength="34.3" x="199.85" y="99.0657">BepInEx</text><line style="stroke:#181818;stroke-width:0.6999999999999998;" x1="253.75" x2="286.65" y1="124.6533" y2="124.6533"/><line style="stroke:#181818;stroke-width:0.6999999999999998;" x1="286.65" x2="286.65" y1="124.6533" y2="133.7533"/><line style="stroke:#181818;stroke-width:0.6999999999999998;" x1="257.95" x2="286.65" y1="133.7533" y2="133.7533"/><polygon fill="#181818" points="264.95,130.9533,257.95,133.7533,264.95,136.5533,262.15,133.7533" style="stroke:#181818;stroke-width:0.6999999999999998;"/><text fill="#000000" font-family="sans-serif" font-size="9.1" lengthAdjust="spacing" textLength="27.3" x="262.15" y="120.9694">Awake</text><rect fill="#EEEEEE" height="2.1" style="stroke:#EEEEEE;stroke-width:0.6999999999999998;" width="997.15" x="3.5" y="164.3052"/><line style="stroke:#000000;stroke-width:0.6999999999999998;" x1="3.5" x2="1000.65" y1="164.3052" y2="164.3052"/><line style="stroke:#000000;stroke-width:0.6999999999999998;" x1="3.5" x2="1000.65" y1="166.4052" y2="166.4052"/><rect fill="#EEEEEE" height="17.7037" style="stroke:#000000;stroke-width:1.3999999999999997;" width="92.4" x="455.875" y="156.1533"/><text fill="#000000" font-family="sans-serif" font-size="9.1" font-weight="bold" lengthAdjust="spacing" textLength="79.8" x="460.075" y="168.7731">Main Menu Scene</text><line style="stroke:#181818;stroke-width:0.6999999999999998;" x1="61.6" x2="94.5" y1="197.1607" y2="197.1607"/><line style="stroke:#181818;stroke-width:0.6999999999999998;" x1="94.5" x2="94.5" y1="197.1607" y2="206.2607"/><line style="stroke:#181818;stroke-width:0.6999999999999998;" x1="65.8" x2="94.5" y1="206.2607" y2="206.2607"/><polygon fill="#181818" points="72.8,203.4607,65.8,206.2607,72.8,209.0607,70,206.2607" style="stroke:#181818;stroke-width:0.6999999999999998;"/><text fill="#000000" font-family="sans-serif" font-size="9.1" lengthAdjust="spacing" textLength="88.2" x="70" y="193.4769">ClutterSystem.Awake</text><polygon fill="#FEFFDD" points="726.6,215.3607,830.9,215.3607,837.9,223.7607,830.9,232.8607,726.6,232.8607,719.6,223.7607,726.6,215.3607" style="stroke:#181818;stroke-width:0.3499999999999999;"/><text fill="#000000" font-family="sans-serif" font-size="9.1" lengthAdjust="spacing" textLength="101.5" x="728" y="227.9806">OnVanillaClutterAvailable</text><polygon fill="#FEFFDD" points="736.4,240.0645,821.1,240.0645,828.1,248.4645,821.1,257.5645,736.4,257.5645,729.4,248.4645,736.4,240.0645" style="stroke:#181818;stroke-width:0.3499999999999999;"/><text fill="#000000" font-family="sans-serif" font-size="9.1" lengthAdjust="spacing" textLength="81.9" x="737.8" y="252.6843">OnClutterRegistered</text><line style="stroke:#181818;stroke-width:0.6999999999999998;" x1="61.6" x2="94.5" y1="277.5719" y2="277.5719"/><line style="stroke:#181818;stroke-width:0.6999999999999998;" x1="94.5" x2="94.5" y1="277.5719" y2="286.6719"/><line style="stroke:#181818;stroke-width:0.6999999999999998;" x1="65.8" x2="94.5" y1="286.6719" y2="286.6719"/><polygon fill="#181818" points="72.8,283.8719,65.8,286.6719,72.8,289.4719,70,286.6719" style="stroke:#181818;stroke-width:0.6999999999999998;"/><text fill="#000000" font-family="sans-serif" font-size="9.1" lengthAdjust="spacing" textLength="87.5" x="70" y="273.888">FejdStartup.SetupGui</text><polygon fill="#FEFFDD" points="805.35,295.7719,902.65,295.7719,909.65,304.1719,902.65,313.2719,805.35,313.2719,798.35,304.1719,805.35,295.7719" style="stroke:#181818;stroke-width:0.3499999999999999;"/><text fill="#000000" font-family="sans-serif" font-size="9.1" lengthAdjust="spacing" textLength="94.5" x="806.75" y="308.3917">OnCustomGUIAvailable</text><polygon fill="#FEFFDD" points="305.9,320.4756,394.8,320.4756,401.8,328.8756,394.8,337.9756,305.9,337.9756,298.9,328.8756,305.9,320.4756" style="stroke:#181818;stroke-width:0.3499999999999999;"/><text fill="#000000" font-family="sans-serif" font-size="9.1" lengthAdjust="spacing" textLength="86.1" x="307.3" y="333.0954">OnLocalizationAdded</text><line style="stroke:#181818;stroke-width:0.6999999999999998;" x1="61.6" x2="94.5" y1="357.983" y2="357.983"/><line style="stroke:#181818;stroke-width:0.6999999999999998;" x1="94.5" x2="94.5" y1="357.983" y2="367.083"/><line style="stroke:#181818;stroke-width:0.6999999999999998;" x1="65.8" x2="94.5" y1="367.083" y2="367.083"/><polygon fill="#181818" points="72.8,364.283,65.8,367.083,72.8,369.883,70,367.083" style="stroke:#181818;stroke-width:0.6999999999999998;"/><text fill="#000000" font-family="sans-serif" font-size="9.1" lengthAdjust="spacing" textLength="98" x="70" y="354.2991">ObjectDB.CopyOtherDB</text><polygon fill="#FEFFDD" points="393.4,376.183,510.3,376.183,517.3,384.583,510.3,393.683,393.4,393.683,386.4,384.583,393.4,376.183" style="stroke:#181818;stroke-width:0.3499999999999999;"/><text fill="#000000" font-family="sans-serif" font-size="9.1" lengthAdjust="spacing" textLength="114.1" x="394.8" y="388.8028">OnVanillaCreaturesAvailable</text><polygon fill="#FEFFDD" points="487.9,400.8867,596.4,400.8867,603.4,409.2867,596.4,418.3867,487.9,418.3867,480.9,409.2867,487.9,400.8867" style="stroke:#181818;stroke-width:0.3499999999999999;"/><text fill="#000000" font-family="sans-serif" font-size="9.1" lengthAdjust="spacing" textLength="105.7" x="489.3" y="413.5065">OnVanillaPrefabsAvailable</text><polygon fill="#FEFFDD" points="653.45,425.5904,751.45,425.5904,758.45,433.9904,751.45,443.0904,653.45,443.0904,646.45,433.9904,653.45,425.5904" style="stroke:#181818;stroke-width:0.3499999999999999;"/><text fill="#000000" font-family="sans-serif" font-size="9.1" lengthAdjust="spacing" textLength="95.2" x="654.85" y="438.2103">OnItemsRegisteredFejd</text><path d="M7,450.2941 L7,469.1941 L116.2,469.1941 L116.2,457.2941 L109.2,450.2941 L7,450.2941 " fill="#ADD8E6" style="stroke:#181818;stroke-width:0.3499999999999999;"/><path d="M109.2,450.2941 L109.2,457.2941 L116.2,457.2941 L109.2,450.2941 " fill="#ADD8E6" style="stroke:#181818;stroke-width:0.3499999999999999;"/><text fill="#000000" font-family="sans-serif" font-size="9.1" lengthAdjust="spacing" textLength="94.5" x="11.2" y="463.614">Main menu interactable</text><rect fill="#EEEEEE" height="2.1" style="stroke:#EEEEEE;stroke-width:0.6999999999999998;" width="997.15" x="3.5" y="488.0497"/><line style="stroke:#000000;stroke-width:0.6999999999999998;" x1="3.5" x2="1000.65" y1="488.0497" y2="488.0497"/><line style="stroke:#000000;stroke-width:0.6999999999999998;" x1="3.5" x2="1000.65" y1="490.1497" y2="490.1497"/><rect fill="#EEEEEE" height="17.7037" style="stroke:#000000;stroke-width:1.3999999999999997;" width="79.8" x="462.175" y="479.8979"/><text fill="#000000" font-family="sans-serif" font-size="9.1" font-weight="bold" lengthAdjust="spacing" textLength="67.2" x="466.375" y="492.5177">Loading Scene</text><rect fill="#EEEEEE" height="2.1" style="stroke:#EEEEEE;stroke-width:0.6999999999999998;" width="997.15" x="3.5" y="519.7534"/><line style="stroke:#000000;stroke-width:0.6999999999999998;" x1="3.5" x2="1000.65" y1="519.7534" y2="519.7534"/><line style="stroke:#000000;stroke-width:0.6999999999999998;" x1="3.5" x2="1000.65" y1="521.8534" y2="521.8534"/><rect fill="#EEEEEE" height="17.7037" style="stroke:#000000;stroke-width:1.3999999999999997;" width="72.8" x="465.675" y="511.6016"/><text fill="#000000" font-family="sans-serif" font-size="9.1" font-weight="bold" lengthAdjust="spacing" textLength="57.4" x="469.875" y="524.2214">Game Scene</text><line style="stroke:#181818;stroke-width:0.6999999999999998;" x1="61.6" x2="94.5" y1="552.609" y2="552.609"/><line style="stroke:#181818;stroke-width:0.6999999999999998;" x1="94.5" x2="94.5" y1="552.609" y2="561.709"/><line style="stroke:#181818;stroke-width:0.6999999999999998;" x1="65.8" x2="94.5" y1="561.709" y2="561.709"/><polygon fill="#181818" points="72.8,558.909,65.8,561.709,72.8,564.509,70,561.709" style="stroke:#181818;stroke-width:0.6999999999999998;"/><text fill="#000000" font-family="sans-serif" font-size="9.1" lengthAdjust="spacing" textLength="74.9" x="70" y="548.9251">ZNetScene.Awake</text><polygon fill="#FEFFDD" points="403.2,570.809,500.5,570.809,507.5,579.209,500.5,588.309,403.2,588.309,396.2,579.209,403.2,570.809" style="stroke:#181818;stroke-width:0.3499999999999999;"/><text fill="#000000" font-family="sans-serif" font-size="9.1" lengthAdjust="spacing" textLength="94.5" x="404.6" y="583.4288">OnCreaturesRegistered</text><polygon fill="#FEFFDD" points="497.7,595.5127,586.6,595.5127,593.6,603.9127,586.6,613.0127,497.7,613.0127,490.7,603.9127,497.7,595.5127" style="stroke:#181818;stroke-width:0.3499999999999999;"/><text fill="#000000" font-family="sans-serif" font-size="9.1" lengthAdjust="spacing" textLength="86.1" x="499.1" y="608.1325">OnPrefabsRegistered</text><line style="stroke:#181818;stroke-width:0.6999999999999998;" x1="61.6" x2="94.5" y1="633.0201" y2="633.0201"/><line style="stroke:#181818;stroke-width:0.6999999999999998;" x1="94.5" x2="94.5" y1="633.0201" y2="642.1201"/><line style="stroke:#181818;stroke-width:0.6999999999999998;" x1="65.8" x2="94.5" y1="642.1201" y2="642.1201"/><polygon fill="#181818" points="72.8,639.3201,65.8,642.1201,72.8,644.9201,70,642.1201" style="stroke:#181818;stroke-width:0.6999999999999998;"/><text fill="#000000" font-family="sans-serif" font-size="9.1" lengthAdjust="spacing" textLength="69.3" x="70" y="629.3362">ObjectDB.Awake</text><polygon fill="#FEFFDD" points="662.2,651.2201,742.7,651.2201,749.7,659.6201,742.7,668.7201,662.2,668.7201,655.2,659.6201,662.2,651.2201" style="stroke:#181818;stroke-width:0.3499999999999999;"/><text fill="#000000" font-family="sans-serif" font-size="9.1" lengthAdjust="spacing" textLength="77.7" x="663.6" y="663.8399">OnItemsRegistered</text><polygon fill="#FEFFDD" points="582.05,675.9238,668.15,675.9238,675.15,684.3238,668.15,693.4238,582.05,693.4238,575.05,684.3238,582.05,675.9238" style="stroke:#181818;stroke-width:0.3499999999999999;"/><text fill="#000000" font-family="sans-serif" font-size="9.1" lengthAdjust="spacing" textLength="83.3" x="583.45" y="688.5437">OnPiecesRegistered</text><line style="stroke:#181818;stroke-width:0.6999999999999998;" x1="61.6" x2="94.5" y1="713.4312" y2="713.4312"/><line style="stroke:#181818;stroke-width:0.6999999999999998;" x1="94.5" x2="94.5" y1="713.4312" y2="722.5312"/><line style="stroke:#181818;stroke-width:0.6999999999999998;" x1="65.8" x2="94.5" y1="722.5312" y2="722.5312"/><polygon fill="#181818" points="72.8,719.7312,65.8,722.5312,72.8,725.3312,70,722.5312" style="stroke:#181818;stroke-width:0.6999999999999998;"/><text fill="#000000" font-family="sans-serif" font-size="9.1" lengthAdjust="spacing" textLength="88.2" x="70" y="709.7474">ClutterSystem.Awake</text><polygon fill="#FEFFDD" points="726.6,731.6312,830.9,731.6312,837.9,740.0312,830.9,749.1312,726.6,749.1312,719.6,740.0312,726.6,731.6312" style="stroke:#181818;stroke-width:0.3499999999999999;"/><text fill="#000000" font-family="sans-serif" font-size="9.1" lengthAdjust="spacing" textLength="101.5" x="728" y="744.2511">OnVanillaClutterAvailable</text><polygon fill="#FEFFDD" points="736.4,756.335,821.1,756.335,828.1,764.735,821.1,773.835,736.4,773.835,729.4,764.735,736.4,756.335" style="stroke:#181818;stroke-width:0.3499999999999999;"/><text fill="#000000" font-family="sans-serif" font-size="9.1" lengthAdjust="spacing" textLength="81.9" x="737.8" y="768.9548">OnClutterRegistered</text><line style="stroke:#181818;stroke-width:0.6999999999999998;" x1="61.6" x2="94.5" y1="793.8424" y2="793.8424"/><line style="stroke:#181818;stroke-width:0.6999999999999998;" x1="94.5" x2="94.5" y1="793.8424" y2="802.9424"/><line style="stroke:#181818;stroke-width:0.6999999999999998;" x1="65.8" x2="94.5" y1="802.9424" y2="802.9424"/><polygon fill="#181818" points="72.8,800.1424,65.8,802.9424,72.8,805.7424,70,802.9424" style="stroke:#181818;stroke-width:0.6999999999999998;"/><text fill="#000000" font-family="sans-serif" font-size="9.1" lengthAdjust="spacing" textLength="46.9" x="70" y="790.1585">Game.Start</text><polygon fill="#FEFFDD" points="805.35,812.0424,902.65,812.0424,909.65,820.4424,902.65,829.5424,805.35,829.5424,798.35,820.4424,805.35,812.0424" style="stroke:#181818;stroke-width:0.3499999999999999;"/><text fill="#000000" font-family="sans-serif" font-size="9.1" lengthAdjust="spacing" textLength="94.5" x="806.75" y="824.6622">OnCustomGUIAvailable</text><line style="stroke:#181818;stroke-width:0.6999999999999998;" x1="61.6" x2="94.5" y1="849.5498" y2="849.5498"/><line style="stroke:#181818;stroke-width:0.6999999999999998;" x1="94.5" x2="94.5" y1="849.5498" y2="858.6498"/><line style="stroke:#181818;stroke-width:0.6999999999999998;" x1="65.8" x2="94.5" y1="858.6498" y2="858.6498"/><polygon fill="#181818" points="72.8,855.8498,65.8,858.6498,72.8,861.4498,70,858.6498" style="stroke:#181818;stroke-width:0.6999999999999998;"/><text fill="#000000" font-family="sans-serif" font-size="9.1" lengthAdjust="spacing" textLength="116.9" x="70" y="845.8659">ZoneSystem.SetupLocations</text><polygon fill="#FEFFDD" points="720.3,867.7498,837.2,867.7498,844.2,876.1498,837.2,885.2498,720.3,885.2498,713.3,876.1498,720.3,867.7498" style="stroke:#181818;stroke-width:0.3499999999999999;"/><text fill="#000000" font-family="sans-serif" font-size="9.1" lengthAdjust="spacing" textLength="114.1" x="721.7" y="880.3696">OnVanillaLocationsAvailable</text><polygon fill="#FEFFDD" points="730.1,892.4535,827.4,892.4535,834.4,900.8535,827.4,909.9535,730.1,909.9535,723.1,900.8535,730.1,892.4535" style="stroke:#181818;stroke-width:0.3499999999999999;"/><text fill="#000000" font-family="sans-serif" font-size="9.1" lengthAdjust="spacing" textLength="94.5" x="731.5" y="905.0733">OnLocationsRegistered</text><polygon fill="#FEFFDD" points="718.2,917.1572,839.3,917.1572,846.3,925.5572,839.3,934.6572,718.2,934.6572,711.2,925.5572,718.2,917.1572" style="stroke:#181818;stroke-width:0.3499999999999999;"/><text fill="#000000" font-family="sans-serif" font-size="9.1" lengthAdjust="spacing" textLength="118.3" x="719.6" y="929.7771">OnVanillaVegetationAvailable</text><polygon fill="#FEFFDD" points="728,941.8609,829.5,941.8609,836.5,950.2609,829.5,959.3609,728,959.3609,721,950.2609,728,941.8609" style="stroke:#181818;stroke-width:0.3499999999999999;"/><text fill="#000000" font-family="sans-serif" font-size="9.1" lengthAdjust="spacing" textLength="98.7" x="729.4" y="954.4808">OnVegetationRegistered</text><line style="stroke:#181818;stroke-width:0.6999999999999998;" x1="61.6" x2="94.5" y1="979.3684" y2="979.3684"/><line style="stroke:#181818;stroke-width:0.6999999999999998;" x1="94.5" x2="94.5" y1="979.3684" y2="988.4684"/><line style="stroke:#181818;stroke-width:0.6999999999999998;" x1="65.8" x2="94.5" y1="988.4684" y2="988.4684"/><polygon fill="#181818" points="72.8,985.6684,65.8,988.4684,72.8,991.2684,70,988.4684" style="stroke:#181818;stroke-width:0.6999999999999998;"/><text fill="#000000" font-family="sans-serif" font-size="9.1" lengthAdjust="spacing" textLength="56.7" x="70" y="975.6845">Minimap.Start</text><polygon fill="#FEFFDD" points="888.65,997.5684,983.85,997.5684,990.85,1005.9684,983.85,1015.0684,888.65,1015.0684,881.65,1005.9684,888.65,997.5684" style="stroke:#181818;stroke-width:0.3499999999999999;"/><text fill="#000000" font-family="sans-serif" font-size="9.1" lengthAdjust="spacing" textLength="92.4" x="890.05" y="1010.1882">OnVanillaMapAvailable</text><line style="stroke:#181818;stroke-width:0.6999999999999998;" x1="61.6" x2="94.5" y1="1035.0758" y2="1035.0758"/><line style="stroke:#181818;stroke-width:0.6999999999999998;" x1="94.5" x2="94.5" y1="1035.0758" y2="1044.1758"/><line style="stroke:#181818;stroke-width:0.6999999999999998;" x1="65.8" x2="94.5" y1="1044.1758" y2="1044.1758"/><polygon fill="#181818" points="72.8,1041.3758,65.8,1044.1758,72.8,1046.9758,70,1044.1758" style="stroke:#181818;stroke-width:0.6999999999999998;"/><text fill="#000000" font-family="sans-serif" font-size="9.1" lengthAdjust="spacing" textLength="93.1" x="70" y="1031.3919">Minimap.LoadMapData</text><polygon fill="#FEFFDD" points="882.35,1053.2758,990.15,1053.2758,997.15,1061.6758,990.15,1070.7758,882.35,1070.7758,875.35,1061.6758,882.35,1053.2758" style="stroke:#181818;stroke-width:0.3499999999999999;"/><text fill="#000000" font-family="sans-serif" font-size="9.1" lengthAdjust="spacing" textLength="105" x="883.75" y="1065.8956">OnVanillaMapDataLoaded</text><path d="M17.15,1077.9795 L17.15,1096.8795 L106.05,1096.8795 L106.05,1084.9795 L99.05,1077.9795 L17.15,1077.9795 " fill="#ADD8E6" style="stroke:#181818;stroke-width:0.3499999999999999;"/><path d="M99.05,1077.9795 L99.05,1084.9795 L106.05,1084.9795 L99.05,1077.9795 " fill="#ADD8E6" style="stroke:#181818;stroke-width:0.3499999999999999;"/><text fill="#000000" font-family="sans-serif" font-size="9.1" lengthAdjust="spacing" textLength="74.2" x="21.35" y="1091.2993">Game interactable</text><!--SRC=[rLNBRjim4BppArZa4216_046dCAFnd1HrKMD-X3aifRM4XEA52ZAgVFr9IbPaXqnVjpgWs1nTtPMiqFozfPkk7mZNp85SGfKetodMXL84XOXtKYfr_8l8HaepKAMWT1q1Jn1bXwiZJ6RYsycqMJJxr8NGWGooWarlr1oZg5cKkHDYA28g2lT85nsk-eF6G9dxs2n0GY8KNt8cIW4NIZqnNyftC3Q6sKOUg5pZQalzYI55pVxC_U50YPO2ja-N8iGArbaz54gYX0cD3K2MUZN-uTQCNftDp2AG8G6itiMUybjNfDq_z1wwVNe3MTnecE5A0Pqz0Qlw4WT7o738Gs02HgWAEWoH85qE2Iach0jLltjzGPqmWkjKIrtkT6bNzQov8cG6gdSecghCg0BiGB1E8SAEDe2ux3cfr1L-c-CcM5I6978YABP5WnWRpvFZu_u4Ysr4Rp8-aiqprd1ZkcQyJYs8jSoDMlUzZfSQ87jvL4KNTJcOlrYTiHqt9_8RBVG2Qhf-9ZsoDXjFQj8xctvmFGjPBdknxKSRr7sDM_cOCNj_CYcmFvpIzkjUO63qc6fTHWJfew1EsfhFcjd9kB6UcPj1YbM2v-OyUadQfVKRSGEyMhLMiOw9LkbrrLMh6VSsU3dIdzeh7LCkRxi-tLj_G-xs5gWxxRnnNltV1BRRwM2EodiVdQNr7borEdd2b83_6FkPbfXZBeyPiwaQX1NoLzTKjqJEBp1Mcq6a5qpXZsPFGfCYIbek8JIvfUNOYVdYQF9dJK7fz8_]--></g></svg>