<?xml version="1.0" encoding="us-ascii" standalone="no"?><svg xmlns="http://www.w3.org/2000/svg" xmlns:xlink="http://www.w3.org/1999/xlink" contentStyleType="text/css" height="1970.1px" preserveAspectRatio="none" style="width:1808px;height:1970px;background:#FFFFFF;" version="1.1" viewBox="0 0 1808 1970" width="1808.4px" zoomAndPan="magnify"><defs/><g><rect fill="#DDDDDD" height="1957.6885" style="stroke:#181818;stroke-width:0.55;" width="110" x="361.35" y="6.6"/><text fill="#000000" font-family="sans-serif" font-size="14.3" font-weight="bold" lengthAdjust="spacing" textLength="83.6" x="374.55" y="22.0312">JotunnMods</text><rect fill="#DDDDDD" height="1957.6885" style="stroke:#181818;stroke-width:0.55;" width="1273.8" x="484.55" y="6.6"/><text fill="#000000" font-family="sans-serif" font-size="14.3" font-weight="bold" lengthAdjust="spacing" textLength="47.3" x="1097.8" y="22.0312">Jotunn</text><line style="stroke:#181818;stroke-width:0.55;stroke-dasharray:5.0,5.0;" x1="96.8" x2="96.8" y1="71.4033" y2="1957.6885"/><rect fill="#FFFFFF" height="91.9402" style="stroke:#181818;stroke-width:1.1;" width="11" x="91.3" y="324.124"/><rect fill="#FFFFFF" height="91.9402" style="stroke:#181818;stroke-width:1.1;" width="11" x="91.3" y="450.4844"/><rect fill="#FFFFFF" height="130.7604" style="stroke:#181818;stroke-width:1.1;" width="11" x="91.3" y="576.8447"/><rect fill="#FFFFFF" height="91.9402" style="stroke:#181818;stroke-width:1.1;" width="11" x="91.3" y="882.6855"/><rect fill="#FFFFFF" height="91.9402" style="stroke:#181818;stroke-width:1.1;" width="11" x="91.3" y="1009.0459"/><rect fill="#FFFFFF" height="91.9402" style="stroke:#181818;stroke-width:1.1;" width="11" x="91.3" y="1135.4063"/><rect fill="#FFFFFF" height="53.1201" style="stroke:#181818;stroke-width:1.1;" width="11" x="91.3" y="1261.7666"/><rect fill="#FFFFFF" height="169.5805" style="stroke:#181818;stroke-width:1.1;" width="11" x="91.3" y="1349.3068"/><rect fill="#FFFFFF" height="53.1201" style="stroke:#181818;stroke-width:1.1;" width="11" x="91.3" y="1553.3074"/><rect fill="#FFFFFF" height="53.1201" style="stroke:#181818;stroke-width:1.1;" width="11" x="91.3" y="1640.8477"/><rect fill="#FFFFFF" height="130.7604" style="stroke:#181818;stroke-width:1.1;" width="11" x="91.3" y="1765.008"/><line style="stroke:#181818;stroke-width:0.55;stroke-dasharray:5.0,5.0;" x1="319" x2="319" y1="71.4033" y2="1957.6885"/><line style="stroke:#181818;stroke-width:0.55;stroke-dasharray:5.0,5.0;" x1="416.35" x2="416.35" y1="71.4033" y2="1957.6885"/><rect fill="#90EE90" height="1747.5047" style="stroke:#181818;stroke-width:1.1;" width="11" x="410.85" y="210.1838"/><line style="stroke:#181818;stroke-width:0.55;stroke-dasharray:5.0,5.0;" x1="568.15" x2="568.15" y1="71.4033" y2="1957.6885"/><line style="stroke:#181818;stroke-width:0.55;stroke-dasharray:5.0,5.0;" x1="727.65" x2="727.65" y1="71.4033" y2="1957.6885"/><line style="stroke:#181818;stroke-width:0.55;stroke-dasharray:5.0,5.0;" x1="869.55" x2="869.55" y1="71.4033" y2="1957.6885"/><line style="stroke:#181818;stroke-width:0.55;stroke-dasharray:5.0,5.0;" x1="999.9" x2="999.9" y1="71.4033" y2="1957.6885"/><line style="stroke:#181818;stroke-width:0.55;stroke-dasharray:5.0,5.0;" x1="1121.45" x2="1121.45" y1="71.4033" y2="1957.6885"/><line style="stroke:#181818;stroke-width:0.55;stroke-dasharray:5.0,5.0;" x1="1241.35" x2="1241.35" y1="71.4033" y2="1957.6885"/><line style="stroke:#181818;stroke-width:0.55;stroke-dasharray:5.0,5.0;" x1="1359.6" x2="1359.6" y1="71.4033" y2="1957.6885"/><line style="stroke:#181818;stroke-width:0.55;stroke-dasharray:5.0,5.0;" x1="1488.85" x2="1488.85" y1="71.4033" y2="1957.6885"/><line style="stroke:#181818;stroke-width:0.55;stroke-dasharray:5.0,5.0;" x1="1660.45" x2="1660.45" y1="71.4033" y2="1957.6885"/><rect fill="#E2E2F0" height="35.8832" rx="2.75" ry="2.75" style="stroke:#181818;stroke-width:0.55;" width="70.4" x="61.6" y="34.4201"/><text fill="#000000" font-family="sans-serif" font-size="15.4" lengthAdjust="spacing" textLength="55" x="69.3" y="58.7383">Valheim</text><rect fill="#E2E2F0" height="35.8832" rx="2.75" ry="2.75" style="stroke:#181818;stroke-width:0.55;" width="71.5" x="283.25" y="34.4201"/><text fill="#000000" font-family="sans-serif" font-size="15.4" lengthAdjust="spacing" textLength="56.1" x="290.95" y="58.7383">BepInEx</text><rect fill="#E2E2F0" height="35.8832" style="stroke:#181818;stroke-width:0.55;" width="91.3" x="372.9" y="30.0201"/><rect fill="#E2E2F0" height="35.8832" style="stroke:#181818;stroke-width:0.55;" width="91.3" x="368.5" y="34.4201"/><text fill="#000000" font-family="sans-serif" font-size="15.4" lengthAdjust="spacing" textLength="75.9" x="376.2" y="58.7383">JotunnMod</text><rect fill="#E2E2F0" height="35.8832" rx="2.75" ry="2.75" style="stroke:#181818;stroke-width:0.55;" width="158.4" x="488.95" y="34.4201"/><text fill="#000000" font-family="sans-serif" font-size="15.4" lengthAdjust="spacing" textLength="143" x="496.65" y="58.7383">LocalizationManager</text><rect fill="#E2E2F0" height="35.8832" rx="2.75" ry="2.75" style="stroke:#181818;stroke-width:0.55;" width="138.6" x="658.35" y="34.4201"/><text fill="#000000" font-family="sans-serif" font-size="15.4" lengthAdjust="spacing" textLength="123.2" x="666.05" y="58.7383">CreatureManager</text><rect fill="#E2E2F0" height="35.8832" rx="2.75" ry="2.75" style="stroke:#181818;stroke-width:0.55;" width="123.2" x="807.95" y="34.4201"/><text fill="#000000" font-family="sans-serif" font-size="15.4" lengthAdjust="spacing" textLength="107.8" x="815.65" y="58.7383">PrefabManager</text><rect fill="#E2E2F0" height="35.8832" rx="2.75" ry="2.75" style="stroke:#181818;stroke-width:0.55;" width="115.5" x="942.15" y="34.4201"/><text fill="#000000" font-family="sans-serif" font-size="15.4" lengthAdjust="spacing" textLength="100.1" x="949.85" y="58.7383">PieceManager</text><rect fill="#E2E2F0" height="35.8832" rx="2.75" ry="2.75" style="stroke:#181818;stroke-width:0.55;" width="105.6" x="1068.65" y="34.4201"/><text fill="#000000" font-family="sans-serif" font-size="15.4" lengthAdjust="spacing" textLength="90.2" x="1076.35" y="58.7383">ItemManager</text><rect fill="#E2E2F0" height="35.8832" rx="2.75" ry="2.75" style="stroke:#181818;stroke-width:0.55;" width="112.2" x="1185.25" y="34.4201"/><text fill="#000000" font-family="sans-serif" font-size="15.4" lengthAdjust="spacing" textLength="96.8" x="1192.95" y="58.7383">ZoneManager</text><rect fill="#E2E2F0" height="35.8832" rx="2.75" ry="2.75" style="stroke:#181818;stroke-width:0.55;" width="102.3" x="1308.45" y="34.4201"/><text fill="#000000" font-family="sans-serif" font-size="15.4" lengthAdjust="spacing" textLength="86.9" x="1316.15" y="58.7383">GUIManager</text><rect fill="#E2E2F0" height="35.8832" rx="2.75" ry="2.75" style="stroke:#181818;stroke-width:0.55;" width="134.2" x="1421.75" y="34.4201"/><text fill="#000000" font-family="sans-serif" font-size="15.4" lengthAdjust="spacing" textLength="118.8" x="1429.45" y="58.7383">MinimapManager</text><rect fill="#E2E2F0" height="35.8832" rx="2.75" ry="2.75" style="stroke:#181818;stroke-width:0.55;" width="187" x="1566.95" y="34.4201"/><text fill="#000000" font-family="sans-serif" font-size="15.4" lengthAdjust="spacing" textLength="171.6" x="1574.65" y="58.7383">SynchronizationManager</text><path d="M44,84.6033 L190.3,84.6033 L190.3,94.8234 L179.3,105.8234 L44,105.8234 L44,84.6033 " fill="#EEEEEE" style="stroke:#000000;stroke-width:1.6500000000000001;"/><rect fill="none" height="134.3805" style="stroke:#000000;stroke-width:1.6500000000000001;" width="453.75" x="44" y="84.6033"/><text fill="#000000" font-family="sans-serif" font-size="14.3" font-weight="bold" lengthAdjust="spacing" textLength="96.8" x="60.5" y="101.1345">For each mod</text><polygon fill="#181818" points="403.15,157.0637,414.15,161.4637,403.15,165.8637,407.55,161.4637" style="stroke:#181818;stroke-width:1.1;"/><line style="stroke:#181818;stroke-width:1.1;" x1="323.95" x2="409.75" y1="161.4637" y2="161.4637"/><text fill="#000000" font-family="sans-serif" font-size="14.3" lengthAdjust="spacing" textLength="66" x="331.65" y="136.6546">Loaded by</text><text fill="#000000" font-family="sans-serif" font-size="14.3" lengthAdjust="spacing" textLength="53.9" x="331.65" y="155.6747">BepInEx</text><line style="stroke:#181818;stroke-width:1.1;" x1="416.35" x2="468.05" y1="195.8838" y2="195.8838"/><line style="stroke:#181818;stroke-width:1.1;" x1="468.05" x2="468.05" y1="195.8838" y2="210.1838"/><line style="stroke:#181818;stroke-width:1.1;" x1="422.95" x2="468.05" y1="210.1838" y2="210.1838"/><polygon fill="#181818" points="433.95,205.7838,422.95,210.1838,433.95,214.5838,429.55,210.1838" style="stroke:#181818;stroke-width:1.1;"/><text fill="#000000" font-family="sans-serif" font-size="14.3" lengthAdjust="spacing" textLength="42.9" x="429.55" y="190.0948">Awake</text><rect fill="#EEEEEE" height="3.3" style="stroke:#EEEEEE;stroke-width:1.1;" width="1795.2" x="5.5" y="258.1938"/><line style="stroke:#000000;stroke-width:1.1;" x1="5.5" x2="1800.7" y1="258.1938" y2="258.1938"/><line style="stroke:#000000;stroke-width:1.1;" x1="5.5" x2="1800.7" y1="261.4938" y2="261.4938"/><rect fill="#EEEEEE" height="27.8201" style="stroke:#000000;stroke-width:2.2;" width="145.2" x="830.5" y="245.3838"/><text fill="#000000" font-family="sans-serif" font-size="14.3" font-weight="bold" lengthAdjust="spacing" textLength="125.4" x="837.1" y="265.2149">Main Menu Scene</text><line style="stroke:#181818;stroke-width:1.1;" x1="96.8" x2="148.5" y1="309.824" y2="309.824"/><line style="stroke:#181818;stroke-width:1.1;" x1="148.5" x2="148.5" y1="309.824" y2="324.124"/><line style="stroke:#181818;stroke-width:1.1;" x1="103.4" x2="148.5" y1="324.124" y2="324.124"/><polygon fill="#181818" points="114.4,319.724,103.4,324.124,114.4,328.524,110,324.124" style="stroke:#181818;stroke-width:1.1;"/><text fill="#000000" font-family="sans-serif" font-size="14.3" lengthAdjust="spacing" textLength="138.6" x="110" y="304.0351">ClutterSystem.Awake</text><polygon fill="#FEFFDD" points="1159.4,338.424,1323.3,338.424,1334.3,351.624,1323.3,365.924,1159.4,365.924,1148.4,351.624,1159.4,338.424" style="stroke:#181818;stroke-width:0.55;"/><text fill="#000000" font-family="sans-serif" font-size="14.3" lengthAdjust="spacing" textLength="159.5" x="1161.6" y="358.2552">OnVanillaClutterAvailable</text><polygon fill="#FEFFDD" points="1174.8,377.2441,1307.9,377.2441,1318.9,390.4441,1307.9,404.7441,1174.8,404.7441,1163.8,390.4441,1174.8,377.2441" style="stroke:#181818;stroke-width:0.55;"/><text fill="#000000" font-family="sans-serif" font-size="14.3" lengthAdjust="spacing" textLength="128.7" x="1177" y="397.0753">OnClutterRegistered</text><line style="stroke:#181818;stroke-width:1.1;" x1="96.8" x2="148.5" y1="436.1844" y2="436.1844"/><line style="stroke:#181818;stroke-width:1.1;" x1="148.5" x2="148.5" y1="436.1844" y2="450.4844"/><line style="stroke:#181818;stroke-width:1.1;" x1="103.4" x2="148.5" y1="450.4844" y2="450.4844"/><polygon fill="#181818" points="114.4,446.0844,103.4,450.4844,114.4,454.8844,110,450.4844" style="stroke:#181818;stroke-width:1.1;"/><text fill="#000000" font-family="sans-serif" font-size="14.3" lengthAdjust="spacing" textLength="137.5" x="110" y="430.3954">FejdStartup.SetupGui</text><polygon fill="#FEFFDD" points="1283.15,464.7844,1436.05,464.7844,1447.05,477.9844,1436.05,492.2844,1283.15,492.2844,1272.15,477.9844,1283.15,464.7844" style="stroke:#181818;stroke-width:0.55;"/><text fill="#000000" font-family="sans-serif" font-size="14.3" lengthAdjust="spacing" textLength="148.5" x="1285.35" y="484.6155">OnCustomGUIAvailable</text><polygon fill="#FEFFDD" points="498.3,503.6045,638,503.6045,649,516.8045,638,531.1045,498.3,531.1045,487.3,516.8045,498.3,503.6045" style="stroke:#181818;stroke-width:0.55;"/><text fill="#000000" font-family="sans-serif" font-size="14.3" lengthAdjust="spacing" textLength="135.3" x="500.5" y="523.4356">OnLocalizationAdded</text><line style="stroke:#181818;stroke-width:1.1;" x1="96.8" x2="148.5" y1="562.5447" y2="562.5447"/><line style="stroke:#181818;stroke-width:1.1;" x1="148.5" x2="148.5" y1="562.5447" y2="576.8447"/><line style="stroke:#181818;stroke-width:1.1;" x1="103.4" x2="148.5" y1="576.8447" y2="576.8447"/><polygon fill="#181818" points="114.4,572.4447,103.4,576.8447,114.4,581.2447,110,576.8447" style="stroke:#181818;stroke-width:1.1;"/><text fill="#000000" font-family="sans-serif" font-size="14.3" lengthAdjust="spacing" textLength="154" x="110" y="556.7558">ObjectDB.CopyOtherDB</text><polygon fill="#FEFFDD" points="635.8,591.1447,819.5,591.1447,830.5,604.3447,819.5,618.6447,635.8,618.6447,624.8,604.3447,635.8,591.1447" style="stroke:#181818;stroke-width:0.55;"/><text fill="#000000" font-family="sans-serif" font-size="14.3" lengthAdjust="spacing" textLength="179.3" x="638" y="610.9759">OnVanillaCreaturesAvailable</text><polygon fill="#FEFFDD" points="784.3,629.9648,954.8,629.9648,965.8,643.1648,954.8,657.4648,784.3,657.4648,773.3,643.1648,784.3,629.9648" style="stroke:#181818;stroke-width:0.55;"/><text fill="#000000" font-family="sans-serif" font-size="14.3" lengthAdjust="spacing" textLength="166.1" x="786.5" y="649.796">OnVanillaPrefabsAvailable</text><polygon fill="#FEFFDD" points="1044.45,668.785,1198.45,668.785,1209.45,681.985,1198.45,696.285,1044.45,696.285,1033.45,681.985,1044.45,668.785" style="stroke:#181818;stroke-width:0.55;"/><text fill="#000000" font-family="sans-serif" font-size="14.3" lengthAdjust="spacing" textLength="149.6" x="1046.65" y="688.6161">OnItemsRegisteredFejd</text><path d="M11,707.6051 L11,737.3051 L182.6,737.3051 L182.6,718.6051 L171.6,707.6051 L11,707.6051 " fill="#ADD8E6" style="stroke:#181818;stroke-width:0.55;"/><path d="M171.6,707.6051 L171.6,718.6051 L182.6,718.6051 L171.6,707.6051 " fill="#ADD8E6" style="stroke:#181818;stroke-width:0.55;"/><text fill="#000000" font-family="sans-serif" font-size="14.3" lengthAdjust="spacing" textLength="148.5" x="17.6" y="728.5362">Main menu interactable</text><rect fill="#EEEEEE" height="3.3" style="stroke:#EEEEEE;stroke-width:1.1;" width="1795.2" x="5.5" y="766.9353"/><line style="stroke:#000000;stroke-width:1.1;" x1="5.5" x2="1800.7" y1="766.9353" y2="766.9353"/><line style="stroke:#000000;stroke-width:1.1;" x1="5.5" x2="1800.7" y1="770.2353" y2="770.2353"/><rect fill="#EEEEEE" height="27.8201" style="stroke:#000000;stroke-width:2.2;" width="125.4" x="840.4" y="754.1252"/><text fill="#000000" font-family="sans-serif" font-size="14.3" font-weight="bold" lengthAdjust="spacing" textLength="105.6" x="847" y="773.9563">Loading Scene</text><rect fill="#EEEEEE" height="3.3" style="stroke:#EEEEEE;stroke-width:1.1;" width="1795.2" x="5.5" y="816.7554"/><line style="stroke:#000000;stroke-width:1.1;" x1="5.5" x2="1800.7" y1="816.7554" y2="816.7554"/><line style="stroke:#000000;stroke-width:1.1;" x1="5.5" x2="1800.7" y1="820.0554" y2="820.0554"/><rect fill="#EEEEEE" height="27.8201" style="stroke:#000000;stroke-width:2.2;" width="114.4" x="845.9" y="803.9453"/><text fill="#000000" font-family="sans-serif" font-size="14.3" font-weight="bold" lengthAdjust="spacing" textLength="90.2" x="852.5" y="823.7765">Game Scene</text><line style="stroke:#181818;stroke-width:1.1;" x1="96.8" x2="148.5" y1="868.3855" y2="868.3855"/><line style="stroke:#181818;stroke-width:1.1;" x1="148.5" x2="148.5" y1="868.3855" y2="882.6855"/><line style="stroke:#181818;stroke-width:1.1;" x1="103.4" x2="148.5" y1="882.6855" y2="882.6855"/><polygon fill="#181818" points="114.4,878.2855,103.4,882.6855,114.4,887.0855,110,882.6855" style="stroke:#181818;stroke-width:1.1;"/><text fill="#000000" font-family="sans-serif" font-size="14.3" lengthAdjust="spacing" textLength="117.7" x="110" y="862.5966">ZNetScene.Awake</text><polygon fill="#FEFFDD" points="651.2,896.9855,804.1,896.9855,815.1,910.1855,804.1,924.4855,651.2,924.4855,640.2,910.1855,651.2,896.9855" style="stroke:#181818;stroke-width:0.55;"/><text fill="#000000" font-family="sans-serif" font-size="14.3" lengthAdjust="spacing" textLength="148.5" x="653.4" y="916.8167">OnCreaturesRegistered</text><polygon fill="#FEFFDD" points="799.7,935.8057,939.4,935.8057,950.4,949.0057,939.4,963.3057,799.7,963.3057,788.7,949.0057,799.7,935.8057" style="stroke:#181818;stroke-width:0.55;"/><text fill="#000000" font-family="sans-serif" font-size="14.3" lengthAdjust="spacing" textLength="135.3" x="801.9" y="955.6368">OnPrefabsRegistered</text><line style="stroke:#181818;stroke-width:1.1;" x1="96.8" x2="148.5" y1="994.7459" y2="994.7459"/><line style="stroke:#181818;stroke-width:1.1;" x1="148.5" x2="148.5" y1="994.7459" y2="1009.0459"/><line style="stroke:#181818;stroke-width:1.1;" x1="103.4" x2="148.5" y1="1009.0459" y2="1009.0459"/><polygon fill="#181818" points="114.4,1004.6459,103.4,1009.0459,114.4,1013.4459,110,1009.0459" style="stroke:#181818;stroke-width:1.1;"/><text fill="#000000" font-family="sans-serif" font-size="14.3" lengthAdjust="spacing" textLength="108.9" x="110" y="988.9569">ObjectDB.Awake</text><polygon fill="#FEFFDD" points="1058.2,1023.3459,1184.7,1023.3459,1195.7,1036.5459,1184.7,1050.8459,1058.2,1050.8459,1047.2,1036.5459,1058.2,1023.3459" style="stroke:#181818;stroke-width:0.55;"/><text fill="#000000" font-family="sans-serif" font-size="14.3" lengthAdjust="spacing" textLength="122.1" x="1060.4" y="1043.1771">OnItemsRegistered</text><polygon fill="#FEFFDD" points="932.25,1062.166,1067.55,1062.166,1078.55,1075.366,1067.55,1089.666,932.25,1089.666,921.25,1075.366,932.25,1062.166" style="stroke:#181818;stroke-width:0.55;"/><text fill="#000000" font-family="sans-serif" font-size="14.3" lengthAdjust="spacing" textLength="130.9" x="934.45" y="1081.9972">OnPiecesRegistered</text><line style="stroke:#181818;stroke-width:1.1;" x1="96.8" x2="148.5" y1="1121.1063" y2="1121.1063"/><line style="stroke:#181818;stroke-width:1.1;" x1="148.5" x2="148.5" y1="1121.1063" y2="1135.4063"/><line style="stroke:#181818;stroke-width:1.1;" x1="103.4" x2="148.5" y1="1135.4063" y2="1135.4063"/><polygon fill="#181818" points="114.4,1131.0063,103.4,1135.4063,114.4,1139.8063,110,1135.4063" style="stroke:#181818;stroke-width:1.1;"/><text fill="#000000" font-family="sans-serif" font-size="14.3" lengthAdjust="spacing" textLength="138.6" x="110" y="1115.3173">ClutterSystem.Awake</text><polygon fill="#FEFFDD" points="1159.4,1149.7063,1323.3,1149.7063,1334.3,1162.9063,1323.3,1177.2063,1159.4,1177.2063,1148.4,1162.9063,1159.4,1149.7063" style="stroke:#181818;stroke-width:0.55;"/><text fill="#000000" font-family="sans-serif" font-size="14.3" lengthAdjust="spacing" textLength="159.5" x="1161.6" y="1169.5374">OnVanillaClutterAvailable</text><polygon fill="#FEFFDD" points="1174.8,1188.5264,1307.9,1188.5264,1318.9,1201.7264,1307.9,1216.0264,1174.8,1216.0264,1163.8,1201.7264,1174.8,1188.5264" style="stroke:#181818;stroke-width:0.55;"/><text fill="#000000" font-family="sans-serif" font-size="14.3" lengthAdjust="spacing" textLength="128.7" x="1177" y="1208.3575">OnClutterRegistered</text><line style="stroke:#181818;stroke-width:1.1;" x1="96.8" x2="148.5" y1="1247.4666" y2="1247.4666"/><line style="stroke:#181818;stroke-width:1.1;" x1="148.5" x2="148.5" y1="1247.4666" y2="1261.7666"/><line style="stroke:#181818;stroke-width:1.1;" x1="103.4" x2="148.5" y1="1261.7666" y2="1261.7666"/><polygon fill="#181818" points="114.4,1257.3666,103.4,1261.7666,114.4,1266.1666,110,1261.7666" style="stroke:#181818;stroke-width:1.1;"/><text fill="#000000" font-family="sans-serif" font-size="14.3" lengthAdjust="spacing" textLength="73.7" x="110" y="1241.6776">Game.Start</text><polygon fill="#FEFFDD" points="1283.15,1276.0666,1436.05,1276.0666,1447.05,1289.2666,1436.05,1303.5666,1283.15,1303.5666,1272.15,1289.2666,1283.15,1276.0666" style="stroke:#181818;stroke-width:0.55;"/><text fill="#000000" font-family="sans-serif" font-size="14.3" lengthAdjust="spacing" textLength="148.5" x="1285.35" y="1295.8978">OnCustomGUIAvailable</text><line style="stroke:#181818;stroke-width:1.1;" x1="96.8" x2="148.5" y1="1335.0068" y2="1335.0068"/><line style="stroke:#181818;stroke-width:1.1;" x1="148.5" x2="148.5" y1="1335.0068" y2="1349.3068"/><line style="stroke:#181818;stroke-width:1.1;" x1="103.4" x2="148.5" y1="1349.3068" y2="1349.3068"/><polygon fill="#181818" points="114.4,1344.9068,103.4,1349.3068,114.4,1353.7068,110,1349.3068" style="stroke:#181818;stroke-width:1.1;"/><text fill="#000000" font-family="sans-serif" font-size="14.3" lengthAdjust="spacing" textLength="183.7" x="110" y="1329.2179">ZoneSystem.SetupLocations</text><polygon fill="#FEFFDD" points="1149.5,1363.6068,1333.2,1363.6068,1344.2,1376.8068,1333.2,1391.1068,1149.5,1391.1068,1138.5,1376.8068,1149.5,1363.6068" style="stroke:#181818;stroke-width:0.55;"/><text fill="#000000" font-family="sans-serif" font-size="14.3" lengthAdjust="spacing" textLength="179.3" x="1151.7" y="1383.438">OnVanillaLocationsAvailable</text><polygon fill="#FEFFDD" points="1164.9,1402.427,1317.8,1402.427,1328.8,1415.627,1317.8,1429.927,1164.9,1429.927,1153.9,1415.627,1164.9,1402.427" style="stroke:#181818;stroke-width:0.55;"/><text fill="#000000" font-family="sans-serif" font-size="14.3" lengthAdjust="spacing" textLength="148.5" x="1167.1" y="1422.2581">OnLocationsRegistered</text><polygon fill="#FEFFDD" points="1146.2,1441.2471,1336.5,1441.2471,1347.5,1454.4471,1336.5,1468.7471,1146.2,1468.7471,1135.2,1454.4471,1146.2,1441.2471" style="stroke:#181818;stroke-width:0.55;"/><text fill="#000000" font-family="sans-serif" font-size="14.3" lengthAdjust="spacing" textLength="185.9" x="1148.4" y="1461.0782">OnVanillaVegetationAvailable</text><polygon fill="#FEFFDD" points="1161.6,1480.0672,1321.1,1480.0672,1332.1,1493.2672,1321.1,1507.5672,1161.6,1507.5672,1150.6,1493.2672,1161.6,1480.0672" style="stroke:#181818;stroke-width:0.55;"/><text fill="#000000" font-family="sans-serif" font-size="14.3" lengthAdjust="spacing" textLength="155.1" x="1163.8" y="1499.8983">OnVegetationRegistered</text><line style="stroke:#181818;stroke-width:1.1;" x1="96.8" x2="148.5" y1="1539.0074" y2="1539.0074"/><line style="stroke:#181818;stroke-width:1.1;" x1="148.5" x2="148.5" y1="1539.0074" y2="1553.3074"/><line style="stroke:#181818;stroke-width:1.1;" x1="103.4" x2="148.5" y1="1553.3074" y2="1553.3074"/><polygon fill="#181818" points="114.4,1548.9074,103.4,1553.3074,114.4,1557.7074,110,1553.3074" style="stroke:#181818;stroke-width:1.1;"/><text fill="#000000" font-family="sans-serif" font-size="14.3" lengthAdjust="spacing" textLength="89.1" x="110" y="1533.2185">Minimap.Start</text><polygon fill="#FEFFDD" points="1414.05,1567.6074,1563.65,1567.6074,1574.65,1580.8074,1563.65,1595.1074,1414.05,1595.1074,1403.05,1580.8074,1414.05,1567.6074" style="stroke:#181818;stroke-width:0.55;"/><text fill="#000000" font-family="sans-serif" font-size="14.3" lengthAdjust="spacing" textLength="145.2" x="1416.25" y="1587.4386">OnVanillaMapAvailable</text><line style="stroke:#181818;stroke-width:1.1;" x1="96.8" x2="148.5" y1="1626.5477" y2="1626.5477"/><line style="stroke:#181818;stroke-width:1.1;" x1="148.5" x2="148.5" y1="1626.5477" y2="1640.8477"/><line style="stroke:#181818;stroke-width:1.1;" x1="103.4" x2="148.5" y1="1640.8477" y2="1640.8477"/><polygon fill="#181818" points="114.4,1636.4477,103.4,1640.8477,114.4,1645.2477,110,1640.8477" style="stroke:#181818;stroke-width:1.1;"/><text fill="#000000" font-family="sans-serif" font-size="14.3" lengthAdjust="spacing" textLength="146.3" x="110" y="1620.7587">Minimap.LoadMapData</text><polygon fill="#FEFFDD" points="1404.15,1655.1477,1573.55,1655.1477,1584.55,1668.3477,1573.55,1682.6477,1404.15,1682.6477,1393.15,1668.3477,1404.15,1655.1477" style="stroke:#181818;stroke-width:0.55;"/><text fill="#000000" font-family="sans-serif" font-size="14.3" lengthAdjust="spacing" textLength="165" x="1406.35" y="1674.9788">OnVanillaMapDataLoaded</text><path d="M44,1692.8678 L347.6,1692.8678 L347.6,1703.0879 L336.6,1714.0879 L44,1714.0879 L44,1692.8678 " fill="#EEEEEE" style="stroke:#000000;stroke-width:1.6500000000000001;"/><rect fill="none" height="197.4006" style="stroke:#000000;stroke-width:1.6500000000000001;" width="1746.8" x="44" y="1692.8678"/><text fill="#000000" font-family="sans-serif" font-size="14.3" font-weight="bold" lengthAdjust="spacing" textLength="254.1" x="60.5" y="1709.3989">client (only if connecting to a server)</text><line style="stroke:#181818;stroke-width:1.1;" x1="96.8" x2="148.5" y1="1750.708" y2="1750.708"/><line style="stroke:#181818;stroke-width:1.1;" x1="148.5" x2="148.5" y1="1750.708" y2="1765.008"/><line style="stroke:#181818;stroke-width:1.1;" x1="103.4" x2="148.5" y1="1765.008" y2="1765.008"/><polygon fill="#181818" points="114.4,1760.608,103.4,1765.008,114.4,1769.408,110,1765.008" style="stroke:#181818;stroke-width:1.1;"/><text fill="#000000" font-family="sans-serif" font-size="14.3" lengthAdjust="spacing" textLength="201.3" x="110" y="1744.919">ZRoutedRpc.HandleRoutedRPC</text><polygon fill="#FEFFDD" points="1579.6,1779.308,1741.3,1779.308,1752.3,1792.508,1741.3,1806.808,1579.6,1806.808,1568.6,1792.508,1579.6,1779.308" style="stroke:#181818;stroke-width:0.55;"/><text fill="#000000" font-family="sans-serif" font-size="14.3" lengthAdjust="spacing" textLength="157.3" x="1581.8" y="1799.1392">OnAdminStatusChanged</text><polygon fill="#FEFFDD" points="1581.8,1818.1281,1739.1,1818.1281,1750.1,1831.3281,1739.1,1845.6281,1581.8,1845.6281,1570.8,1831.3281,1581.8,1818.1281" style="stroke:#181818;stroke-width:0.55;"/><text fill="#000000" font-family="sans-serif" font-size="14.3" lengthAdjust="spacing" textLength="152.9" x="1584" y="1837.9593">OnSyncingConfiguration</text><polygon fill="#FEFFDD" points="1564.2,1856.9482,1756.7,1856.9482,1767.7,1870.1482,1756.7,1884.4482,1564.2,1884.4482,1553.2,1870.1482,1564.2,1856.9482" style="stroke:#181818;stroke-width:0.55;"/><text fill="#000000" font-family="sans-serif" font-size="14.3" lengthAdjust="spacing" textLength="188.1" x="1566.4" y="1876.7794">OnConfigurationSynchronized</text><path d="M26.95,1911.1684 L26.95,1940.8684 L166.65,1940.8684 L166.65,1922.1684 L155.65,1911.1684 L26.95,1911.1684 " fill="#ADD8E6" style="stroke:#181818;stroke-width:0.55;"/><path d="M155.65,1911.1684 L155.65,1922.1684 L166.65,1922.1684 L155.65,1911.1684 " fill="#ADD8E6" style="stroke:#181818;stroke-width:0.55;"/><text fill="#000000" font-family="sans-serif" font-size="14.3" lengthAdjust="spacing" textLength="116.6" x="33.55" y="1932.0995">Game interactable</text><!--SRC=[rLR1Rjim3BtxApJiqAr1ym41qY59rwx3l1ODbaEn2sCpjZgPCcIfNVhrasGdTbAhJNDR3aOayf7qunFbanEs4l8f-b0go0fW6kKpqyfWbFCKsKfAlPH_ewW4fNd2Io3D5Y1ovCNEtXJBQ_fg7Qqt-owr8OfbMaNC_X8f12QQIwfQKuIKCX-wHNZlRjGVCW71dy5XOo38KBtmcIa4RHI6xBSALx0CMZacGUYrnY9akvSKn5tzkWwPOawyW39adgyfoPMalNVUSfKfQKfsAHL3I79MM1vTY2zdvrjYsUdfo187ALhC-ZTjEkFyMgUpyyvYC60V1SzodIb46h794_n1dzJdYwBncCN0YSL8XiqJ96JZSHGrGd31ch-3mOZDXD4QrNnTMVg6TIoNF2UfaSb7L5toHko65a1S26Y0aqVW0fRYBLJZVeSPjvaKfb5gIT7y4InWez50ZPVuaCwr9TwKmpdQvvNX- -dQBlfifjAoi7l1ydh4we3TxKcQlglCc-M3FJWNq-5CbkiRdQEwcEwdtTD_by_6KWLBtZaR7MIz7yPr3eP3kMNLzi6Hs_kIRO3DwzQoMmg3erfXXLCO9nl7mdrg9pudPqvPApsxTmK5DXklYF7-9shlr2_47lAsh7M4zHPj3Lz7IN7Ruzu2NsVwHM6TQURhSklZoleVJh6JmD0VutUVtSEJk7eR5loaSEVPtsM7qR5rFvIGBI3SvlvC2ynGrsFcm5GjuYZwcxkilmEx5rsdp1ZAOzgmIUP6WGrn0HhUazBvrvTYRyxwNaq4Hti9Vv8areolx8SBaVjmiPD7ImQiGcNpV0u9vKuQZUbTcGo_0QK2c_NjRB_G_blU5Jn92qwMJssgMGwKlUnz6EiijjIPf1NFZFBcmz4xiDQjdw_Efy7hCzqFwPrn_Wy0]--></g></svg>