<?xml version="1.0" encoding="UTF-8" standalone="no" ?>
<!DOCTYPE svg PUBLIC "-//W3C//DTD SVG 1.1//EN" "http://www.w3.org/Graphics/SVG/1.1/DTD/svg11.dtd">
<svg xmlns="http://www.w3.org/2000/svg" xmlns:xlink="http://www.w3.org/1999/xlink" version="1.1" width="512" height="512" viewBox="0 0 512 512" xml:space="preserve">
<desc>Created with Fabric.js 3.6.3</desc>
<defs>
</defs>
<g transform="matrix(1 0 0 1 256.21 256.02)"  >
<path style="stroke: none; stroke-width: 1; stroke-dasharray: none; stroke-linecap: butt; stroke-dashoffset: 0; stroke-linejoin: round; stroke-miterlimit: 2; fill: rgb(0,0,0); fill-rule: evenodd; opacity: 1;"  transform=" translate(-255.15, -257.97)" d="M 361.745 445.49 C 365.074 446.6 369.402 446.489 369.402 446.489 L 376.505 437.166 L 382.165 440.385 L 416.125 421.407 L 415.792 416.191 L 419.788 411.863 L 423.45 415.414 L 427.224 412.862 L 428.444 414.859 L 475.167 388.779 L 492.702 390.221 L 495.366 385.893 L 484.934 357.26 L 478.941 357.149 L 482.492 350.268 L 479.052 341.945 L 474.945 342.056 L 463.07 354.929 L 448.865 362.143 C 448.865 362.143 448.643 364.696 447.533 365.584 C 446.423 366.471 444.648 367.248 444.648 367.248 L 442.206 365.362 L 438.211 369.135 L 435.658 368.358 L 398.147 386.004 L 398.036 375.239 C 398.036 375.239 395.15 373.352 395.483 372.021 C 395.816 370.689 398.257 367.914 398.257 367.914 L 398.701 362.032 C 398.701 362.032 397.481 361.81 397.481 359.813 C 397.481 357.815 398.923 355.928 398.923 355.928 L 400.699 297.996 L 397.481 287.897 L 402.142 290.228 L 401.809 284.013 L 397.481 283.125 L 401.809 278.353 L 403.03 239.953 L 399.145 240.952 L 403.252 233.738 L 403.918 216.425 L 413.351 205.771 L 413.129 195.672 L 396.371 195.45 C 396.371 195.45 394.151 198.668 391.71 198.668 C 389.268 198.668 386.715 195.672 386.715 195.672 L 384.607 198.446 L 375.062 194.895 L 359.525 194.34 L 356.418 203.884 L 362.189 208.213 L 361.412 230.742 L 365.074 234.626 L 361.412 241.396 L 360.524 291.781 C 360.524 291.781 364.519 295.999 363.964 300.105 C 363.409 304.211 359.969 311.536 359.969 311.536 L 359.081 388.113 C 359.081 388.113 361.412 389.223 361.19 391.22 C 360.968 393.218 358.637 396.769 358.637 396.769 L 358.082 441.273 C 358.082 441.273 358.675 444.467 361.745 445.49 Z M 27.84 350.188 C 28.117 349.911 32.973 339.645 32.973 339.645 L 45.597 352.963 L 67.793 363.367 L 75.007 373.494 L 77.92 373.91 L 81.666 370.026 L 113.018 384.87 L 111.492 342.697 C 111.492 342.697 113.989 341.032 113.711 338.951 C 113.434 336.87 111.076 335.483 111.076 335.483 L 109.55 289.426 C 109.55 289.426 112.324 288.316 112.185 286.374 C 112.047 284.432 109.688 281.657 109.688 281.657 C 109.688 281.657 111.214 280.547 110.937 279.021 C 110.659 277.495 108.301 275.969 108.301 275.969 L 106.914 215.901 L 97.203 204.248 L 97.48 194.676 L 111.214 194.26 L 117.734 201.473 L 121.619 193.982 L 151.029 193.705 L 154.219 202.722 L 148.116 206.884 L 149.087 236.016 L 144.786 241.149 L 144.647 248.502 L 149.78 243.508 L 152 382.234 L 145.618 370.997 C 145.618 370.997 146.867 382.65 148.254 385.008 C 149.642 387.367 152.139 394.719 152.139 394.719 L 152.832 441.886 C 152.832 441.886 149.503 444.661 144.925 444.522 C 140.347 444.383 139.792 444.245 139.792 444.245 L 140.624 434.395 L 134.659 438.418 L 134.382 435.227 L 129.526 439.112 L 91.099 418.58 C 91.099 418.58 90.128 412.615 88.186 410.673 C 86.244 408.731 85.411 407.76 85.411 407.76 C 85.411 407.76 83.33 407.898 83.053 409.84 C 82.775 411.783 82.498 414.002 82.498 414.002 L 35.054 387.367 L 18.129 389.17 L 14.938 383.621 L 24.233 362.119 L 31.863 361.702 L 25.759 353.518 L 30.753 353.24 C 30.753 353.24 27.562 350.466 27.84 350.188 Z M 250.997 417.943 C 250.997 417.943 254.604 421.133 257.239 421.272 C 259.875 421.411 262.788 419.607 263.898 418.081 C 265.008 416.555 270.696 399.076 270.696 399.076 L 266.811 393.249 C 266.811 393.249 269.725 391.446 270.696 390.059 C 271.667 388.671 271.667 383.539 271.667 383.539 L 274.996 386.174 L 302.464 307.239 L 300.522 289.066 C 300.522 289.066 302.464 288.65 303.435 287.679 C 304.406 286.708 305.1 284.349 305.1 284.349 L 308.429 288.65 L 353.515 160.328 L 350.741 156.305 L 350.463 146.872 L 358.371 140.768 C 358.371 140.768 356.151 139.519 356.29 137.577 C 356.429 135.635 365.03 125.369 365.03 125.369 L 372.105 105.254 L 404.454 75.861 L 401.506 70.659 L 338.039 70.139 L 337.692 75.514 L 333.704 69.965 L 307.172 69.445 L 305.438 72.393 L 317.577 100.658 L 292.086 179.559 L 291.219 190.31 L 288.964 188.403 L 257.751 285.685 L 241.971 237.824 L 238.676 240.078 L 239.37 229.327 L 203.127 118.173 C 203.127 118.173 199.486 118.346 197.752 114.704 C 196.018 111.063 196.191 107.768 196.191 107.768 L 200.7 108.115 L 196.885 100.832 L 208.85 73.26 L 206.769 69.618 L 171.09 70.331 C 171.09 70.331 168.871 74.216 169.148 77.545 C 169.426 80.875 170.397 83.649 170.397 83.649 C 170.397 83.649 166.651 80.736 165.541 77.407 C 164.431 74.077 164.015 70.47 164.015 70.47 L 135.993 70.748 L 137.241 75.603 L 130.998 70.331 L 114.767 70.609 L 111.022 75.881 L 142.79 105.429 L 164.709 168.55 L 169.009 168.133 L 168.871 182.145 L 215.205 314.628 L 218.535 318.235 L 219.645 328.917 L 231.991 364.154 L 234.072 364.154 L 237.956 359.437 C 237.956 359.437 238.234 363.46 236.985 366.235 C 235.737 369.009 234.488 371.506 234.488 371.506 L 250.997 417.943 Z" stroke-linecap="round" />
</g>
</svg>