<?xml version="1.0" encoding="UTF-8" standalone="no"?>
<!DOCTYPE svg PUBLIC "-//W3C//DTD SVG 1.1//EN" "http://www.w3.org/Graphics/SVG/1.1/DTD/svg11.dtd">
<svg width="100%" height="100%" viewBox="0 0 512 512" version="1.1" xmlns="http://www.w3.org/2000/svg" xmlns:xlink="http://www.w3.org/1999/xlink" xml:space="preserve" xmlns:serif="http://www.serif.com/" style="fill-rule:evenodd;clip-rule:evenodd;stroke-linejoin:round;stroke-miterlimit:2;">
    <path d="M361.745,445.49C365.074,446.6 369.402,446.489 369.402,446.489L376.505,437.166L382.165,440.385L416.125,421.407L415.792,416.191L419.788,411.863L423.45,415.414L427.224,412.862L428.444,414.859L475.167,388.779L492.702,390.221L495.366,385.893L484.934,357.26L478.941,357.149L482.492,350.268L479.052,341.945L474.945,342.056L463.07,354.929L448.865,362.143C448.865,362.143 448.643,364.696 447.533,365.584C446.423,366.471 444.648,367.248 444.648,367.248L442.206,365.362L438.211,369.135L435.658,368.358L398.147,386.004L398.036,375.239C398.036,375.239 395.15,373.352 395.483,372.021C395.816,370.689 398.257,367.914 398.257,367.914L398.701,362.032C398.701,362.032 397.481,361.81 397.481,359.813C397.481,357.815 398.923,355.928 398.923,355.928L400.699,297.996L397.481,287.897L402.142,290.228L401.809,284.013L397.481,283.125L401.809,278.353L403.03,239.953L399.145,240.952L403.252,233.738L403.918,216.425L413.351,205.771L413.129,195.672L396.371,195.45C396.371,195.45 394.151,198.668 391.71,198.668C389.268,198.668 386.715,195.672 386.715,195.672L384.607,198.446L375.062,194.895L359.525,194.34L356.418,203.884L362.189,208.213L361.412,230.742L365.074,234.626L361.412,241.396L360.524,291.781C360.524,291.781 364.519,295.999 363.964,300.105C363.409,304.211 359.969,311.536 359.969,311.536L359.081,388.113C359.081,388.113 361.412,389.223 361.19,391.22C360.968,393.218 358.637,396.769 358.637,396.769L358.082,441.273C358.082,441.273 358.675,444.467 361.745,445.49ZM27.84,350.188C28.117,349.911 32.973,339.645 32.973,339.645L45.597,352.963L67.793,363.367L75.007,373.494L77.92,373.91L81.666,370.026L113.018,384.87L111.492,342.697C111.492,342.697 113.989,341.032 113.711,338.951C113.434,336.87 111.076,335.483 111.076,335.483L109.55,289.426C109.55,289.426 112.324,288.316 112.185,286.374C112.047,284.432 109.688,281.657 109.688,281.657C109.688,281.657 111.214,280.547 110.937,279.021C110.659,277.495 108.301,275.969 108.301,275.969L106.914,215.901L97.203,204.248L97.48,194.676L111.214,194.26L117.734,201.473L121.619,193.982L151.029,193.705L154.219,202.722L148.116,206.884L149.087,236.016L144.786,241.149L144.647,248.502L149.78,243.508L152,382.234L145.618,370.997C145.618,370.997 146.867,382.65 148.254,385.008C149.642,387.367 152.139,394.719 152.139,394.719L152.832,441.886C152.832,441.886 149.503,444.661 144.925,444.522C140.347,444.383 139.792,444.245 139.792,444.245L140.624,434.395L134.659,438.418L134.382,435.227L129.526,439.112L91.099,418.58C91.099,418.58 90.128,412.615 88.186,410.673C86.244,408.731 85.411,407.76 85.411,407.76C85.411,407.76 83.33,407.898 83.053,409.84C82.775,411.783 82.498,414.002 82.498,414.002L35.054,387.367L18.129,389.17L14.938,383.621L24.233,362.119L31.863,361.702L25.759,353.518L30.753,353.24C30.753,353.24 27.562,350.466 27.84,350.188ZM250.997,417.943C250.997,417.943 254.604,421.133 257.239,421.272C259.875,421.411 262.788,419.607 263.898,418.081C265.008,416.555 270.696,399.076 270.696,399.076L266.811,393.249C266.811,393.249 269.725,391.446 270.696,390.059C271.667,388.671 271.667,383.539 271.667,383.539L274.996,386.174L302.464,307.239L300.522,289.066C300.522,289.066 302.464,288.65 303.435,287.679C304.406,286.708 305.1,284.349 305.1,284.349L308.429,288.65L353.515,160.328L350.741,156.305L350.463,146.872L358.371,140.768C358.371,140.768 356.151,139.519 356.29,137.577C356.429,135.635 365.03,125.369 365.03,125.369L372.105,105.254L404.454,75.861L401.506,70.659L338.039,70.139L337.692,75.514L333.704,69.965L307.172,69.445L305.438,72.393L317.577,100.658L292.086,179.559L291.219,190.31L288.964,188.403L257.751,285.685L241.971,237.824L238.676,240.078L239.37,229.327L203.127,118.173C203.127,118.173 199.486,118.346 197.752,114.704C196.018,111.063 196.191,107.768 196.191,107.768L200.7,108.115L196.885,100.832L208.85,73.26L206.769,69.618L171.09,70.331C171.09,70.331 168.871,74.216 169.148,77.545C169.426,80.875 170.397,83.649 170.397,83.649C170.397,83.649 166.651,80.736 165.541,77.407C164.431,74.077 164.015,70.47 164.015,70.47L135.993,70.748L137.241,75.603L130.998,70.331L114.767,70.609L111.022,75.881L142.79,105.429L164.709,168.55L169.009,168.133L168.871,182.145L215.205,314.628L218.535,318.235L219.645,328.917L231.991,364.154L234.072,364.154L237.956,359.437C237.956,359.437 238.234,363.46 236.985,366.235C235.737,369.009 234.488,371.506 234.488,371.506L250.997,417.943Z" style="fill:white;"/>
</svg>
