<?xml version="1.0" encoding="us-ascii" standalone="no"?><svg xmlns="http://www.w3.org/2000/svg" xmlns:xlink="http://www.w3.org/1999/xlink" contentStyleType="text/css" height="898.2px" preserveAspectRatio="none" style="width:865px;height:898px;background:#FFFFFF;" version="1.1" viewBox="0 0 865 898" width="865.2px" zoomAndPan="magnify"><defs/><g><rect fill="#DDDDDD" height="891.2332" style="stroke:#181818;stroke-width:0.3;" width="60" x="188.1" y="3.6"/><text fill="#000000" font-family="sans-serif" font-size="7.8" font-weight="bold" lengthAdjust="spacing" textLength="45.6" x="195.3" y="12.017">JotunnMods</text><rect fill="#DDDDDD" height="891.2332" style="stroke:#181818;stroke-width:0.3;" width="586.8" x="255.3" y="3.6"/><text fill="#000000" font-family="sans-serif" font-size="7.8" font-weight="bold" lengthAdjust="spacing" textLength="25.8" x="535.8" y="12.017">Jotunn</text><line style="stroke:#181818;stroke-width:0.3;stroke-dasharray:5.0,5.0;" x1="52.8" x2="52.8" y1="38.9473" y2="891.2332"/><rect fill="#FFFFFF" height="28.9746" style="stroke:#181818;stroke-width:0.6;" width="6" x="49.8" y="176.7949"/><rect fill="#FFFFFF" height="28.9746" style="stroke:#181818;stroke-width:0.6;" width="6" x="49.8" y="224.5441"/><rect fill="#FFFFFF" height="50.1492" style="stroke:#181818;stroke-width:0.6;" width="6" x="49.8" y="272.2934"/><rect fill="#FFFFFF" height="71.3238" style="stroke:#181818;stroke-width:0.6;" width="6" x="49.8" y="341.2172"/><rect fill="#FFFFFF" height="50.1492" style="stroke:#181818;stroke-width:0.6;" width="6" x="49.8" y="508.0395"/><rect fill="#FFFFFF" height="50.1492" style="stroke:#181818;stroke-width:0.6;" width="6" x="49.8" y="576.9633"/><rect fill="#FFFFFF" height="28.9746" style="stroke:#181818;stroke-width:0.6;" width="6" x="49.8" y="645.8871"/><rect fill="#FFFFFF" height="28.9746" style="stroke:#181818;stroke-width:0.6;" width="6" x="49.8" y="693.6363"/><rect fill="#FFFFFF" height="28.9746" style="stroke:#181818;stroke-width:0.6;" width="6" x="49.8" y="741.3855"/><rect fill="#FFFFFF" height="28.9746" style="stroke:#181818;stroke-width:0.6;" width="6" x="49.8" y="789.1348"/><rect fill="#FFFFFF" height="28.9746" style="stroke:#181818;stroke-width:0.6;" width="6" x="49.8" y="836.884"/><line style="stroke:#181818;stroke-width:0.3;stroke-dasharray:5.0,5.0;" x1="165" x2="165" y1="38.9473" y2="891.2332"/><line style="stroke:#181818;stroke-width:0.3;stroke-dasharray:5.0,5.0;" x1="218.1" x2="218.1" y1="38.9473" y2="891.2332"/><rect fill="#90EE90" height="776.5875" style="stroke:#181818;stroke-width:0.6;" width="6" x="215.1" y="114.6457"/><line style="stroke:#181818;stroke-width:0.3;stroke-dasharray:5.0,5.0;" x1="300.9" x2="300.9" y1="38.9473" y2="891.2332"/><line style="stroke:#181818;stroke-width:0.3;stroke-dasharray:5.0,5.0;" x1="387.9" x2="387.9" y1="38.9473" y2="891.2332"/><line style="stroke:#181818;stroke-width:0.3;stroke-dasharray:5.0,5.0;" x1="465.3" x2="465.3" y1="38.9473" y2="891.2332"/><line style="stroke:#181818;stroke-width:0.3;stroke-dasharray:5.0,5.0;" x1="536.4" x2="536.4" y1="38.9473" y2="891.2332"/><line style="stroke:#181818;stroke-width:0.3;stroke-dasharray:5.0,5.0;" x1="602.7" x2="602.7" y1="38.9473" y2="891.2332"/><line style="stroke:#181818;stroke-width:0.3;stroke-dasharray:5.0,5.0;" x1="668.1" x2="668.1" y1="38.9473" y2="891.2332"/><line style="stroke:#181818;stroke-width:0.3;stroke-dasharray:5.0,5.0;" x1="732.6" x2="732.6" y1="38.9473" y2="891.2332"/><line style="stroke:#181818;stroke-width:0.3;stroke-dasharray:5.0,5.0;" x1="803.1" x2="803.1" y1="38.9473" y2="891.2332"/><rect fill="#E2E2F0" height="19.5727" rx="1.5" ry="1.5" style="stroke:#181818;stroke-width:0.3;" width="38.4" x="33.6" y="18.7746"/><text fill="#000000" font-family="sans-serif" font-size="8.4" lengthAdjust="spacing" textLength="30" x="37.8" y="32.0391">Valheim</text><rect fill="#E2E2F0" height="19.5727" rx="1.5" ry="1.5" style="stroke:#181818;stroke-width:0.3;" width="39" x="145.5" y="18.7746"/><text fill="#000000" font-family="sans-serif" font-size="8.4" lengthAdjust="spacing" textLength="30.6" x="149.7" y="32.0391">BepInEx</text><rect fill="#E2E2F0" height="19.5727" style="stroke:#181818;stroke-width:0.3;" width="49.8" x="194.4" y="16.3746"/><rect fill="#E2E2F0" height="19.5727" style="stroke:#181818;stroke-width:0.3;" width="49.8" x="192" y="18.7746"/><text fill="#000000" font-family="sans-serif" font-size="8.4" lengthAdjust="spacing" textLength="41.4" x="196.2" y="32.0391">JotunnMod</text><rect fill="#E2E2F0" height="19.5727" rx="1.5" ry="1.5" style="stroke:#181818;stroke-width:0.3;" width="86.4" x="257.7" y="18.7746"/><text fill="#000000" font-family="sans-serif" font-size="8.4" lengthAdjust="spacing" textLength="78" x="261.9" y="32.0391">LocalizationManager</text><rect fill="#E2E2F0" height="19.5727" rx="1.5" ry="1.5" style="stroke:#181818;stroke-width:0.3;" width="75.6" x="350.1" y="18.7746"/><text fill="#000000" font-family="sans-serif" font-size="8.4" lengthAdjust="spacing" textLength="67.2" x="354.3" y="32.0391">CreatureManager</text><rect fill="#E2E2F0" height="19.5727" rx="1.5" ry="1.5" style="stroke:#181818;stroke-width:0.3;" width="67.2" x="431.7" y="18.7746"/><text fill="#000000" font-family="sans-serif" font-size="8.4" lengthAdjust="spacing" textLength="58.8" x="435.9" y="32.0391">PrefabManager</text><rect fill="#E2E2F0" height="19.5727" rx="1.5" ry="1.5" style="stroke:#181818;stroke-width:0.3;" width="63" x="504.9" y="18.7746"/><text fill="#000000" font-family="sans-serif" font-size="8.4" lengthAdjust="spacing" textLength="54.6" x="509.1" y="32.0391">PieceManager</text><rect fill="#E2E2F0" height="19.5727" rx="1.5" ry="1.5" style="stroke:#181818;stroke-width:0.3;" width="57.6" x="573.9" y="18.7746"/><text fill="#000000" font-family="sans-serif" font-size="8.4" lengthAdjust="spacing" textLength="49.2" x="578.1" y="32.0391">ItemManager</text><rect fill="#E2E2F0" height="19.5727" rx="1.5" ry="1.5" style="stroke:#181818;stroke-width:0.3;" width="61.2" x="637.5" y="18.7746"/><text fill="#000000" font-family="sans-serif" font-size="8.4" lengthAdjust="spacing" textLength="52.8" x="641.7" y="32.0391">ZoneManager</text><rect fill="#E2E2F0" height="19.5727" rx="1.5" ry="1.5" style="stroke:#181818;stroke-width:0.3;" width="55.8" x="704.7" y="18.7746"/><text fill="#000000" font-family="sans-serif" font-size="8.4" lengthAdjust="spacing" textLength="47.4" x="708.9" y="32.0391">GUIManager</text><rect fill="#E2E2F0" height="19.5727" rx="1.5" ry="1.5" style="stroke:#181818;stroke-width:0.3;" width="73.2" x="766.5" y="18.7746"/><text fill="#000000" font-family="sans-serif" font-size="8.4" lengthAdjust="spacing" textLength="64.8" x="770.7" y="32.0391">MinimapManager</text><path d="M24,46.1473 L103.8,46.1473 L103.8,51.7219 L97.8,57.7219 L24,57.7219 L24,46.1473 " fill="#EEEEEE" style="stroke:#000000;stroke-width:0.8999999999999999;"/><rect fill="none" height="73.2984" style="stroke:#000000;stroke-width:0.8999999999999999;" width="238.5" x="24" y="46.1473"/><text fill="#000000" font-family="sans-serif" font-size="7.8" font-weight="bold" lengthAdjust="spacing" textLength="52.8" x="33" y="55.1643">For each mod</text><polygon fill="#181818" points="210.9,85.6711,216.9,88.0711,210.9,90.4711,213.3,88.0711" style="stroke:#181818;stroke-width:0.6;"/><line style="stroke:#181818;stroke-width:0.6;" x1="167.7" x2="214.5" y1="88.0711" y2="88.0711"/><text fill="#000000" font-family="sans-serif" font-size="7.8" lengthAdjust="spacing" textLength="36" x="171.9" y="74.5389">Loaded by</text><text fill="#000000" font-family="sans-serif" font-size="7.8" lengthAdjust="spacing" textLength="29.4" x="171.9" y="84.9135">BepInEx</text><line style="stroke:#181818;stroke-width:0.6;" x1="218.1" x2="246.3" y1="106.8457" y2="106.8457"/><line style="stroke:#181818;stroke-width:0.6;" x1="246.3" x2="246.3" y1="106.8457" y2="114.6457"/><line style="stroke:#181818;stroke-width:0.6;" x1="221.7" x2="246.3" y1="114.6457" y2="114.6457"/><polygon fill="#181818" points="227.7,112.2457,221.7,114.6457,227.7,117.0457,225.3,114.6457" style="stroke:#181818;stroke-width:0.6;"/><text fill="#000000" font-family="sans-serif" font-size="7.8" lengthAdjust="spacing" textLength="23.4" x="225.3" y="103.6881">Awake</text><rect fill="#EEEEEE" height="1.8" style="stroke:#EEEEEE;stroke-width:0.6;" width="855.3" x="3" y="140.833"/><line style="stroke:#000000;stroke-width:0.6;" x1="3" x2="858.3" y1="140.833" y2="140.833"/><line style="stroke:#000000;stroke-width:0.6;" x1="3" x2="858.3" y1="142.633" y2="142.633"/><rect fill="#EEEEEE" height="15.1746" style="stroke:#000000;stroke-width:1.2;" width="79.2" x="391.05" y="133.8457"/><text fill="#000000" font-family="sans-serif" font-size="7.8" font-weight="bold" lengthAdjust="spacing" textLength="68.4" x="394.65" y="144.6627">Main Menu Scene</text><line style="stroke:#181818;stroke-width:0.6;" x1="52.8" x2="81" y1="168.9949" y2="168.9949"/><line style="stroke:#181818;stroke-width:0.6;" x1="81" x2="81" y1="168.9949" y2="176.7949"/><line style="stroke:#181818;stroke-width:0.6;" x1="56.4" x2="81" y1="176.7949" y2="176.7949"/><polygon fill="#181818" points="62.4,174.3949,56.4,176.7949,62.4,179.1949,60,176.7949" style="stroke:#181818;stroke-width:0.6;"/><text fill="#000000" font-family="sans-serif" font-size="7.8" lengthAdjust="spacing" textLength="75.6" x="60" y="165.8373">ClutterSystem.Awake</text><polygon fill="#FEFFDD" points="623.4,184.5949,712.8,184.5949,718.8,191.7949,712.8,199.5949,623.4,199.5949,617.4,191.7949,623.4,184.5949" style="stroke:#181818;stroke-width:0.3;"/><text fill="#000000" font-family="sans-serif" font-size="7.8" lengthAdjust="spacing" textLength="87" x="624.6" y="195.4119">OnVanillaClutterAvailable</text><line style="stroke:#181818;stroke-width:0.6;" x1="52.8" x2="81" y1="216.7441" y2="216.7441"/><line style="stroke:#181818;stroke-width:0.6;" x1="81" x2="81" y1="216.7441" y2="224.5441"/><line style="stroke:#181818;stroke-width:0.6;" x1="56.4" x2="81" y1="224.5441" y2="224.5441"/><polygon fill="#181818" points="62.4,222.1441,56.4,224.5441,62.4,226.9441,60,224.5441" style="stroke:#181818;stroke-width:0.6;"/><text fill="#000000" font-family="sans-serif" font-size="7.8" lengthAdjust="spacing" textLength="75" x="60" y="213.5865">FejdStartup.SetupGui</text><polygon fill="#FEFFDD" points="262.8,232.3441,339,232.3441,345,239.5441,339,247.3441,262.8,247.3441,256.8,239.5441,262.8,232.3441" style="stroke:#181818;stroke-width:0.3;"/><text fill="#000000" font-family="sans-serif" font-size="7.8" lengthAdjust="spacing" textLength="73.8" x="264" y="243.1611">OnLocalizationAdded</text><line style="stroke:#181818;stroke-width:0.6;" x1="52.8" x2="81" y1="264.4934" y2="264.4934"/><line style="stroke:#181818;stroke-width:0.6;" x1="81" x2="81" y1="264.4934" y2="272.2934"/><line style="stroke:#181818;stroke-width:0.6;" x1="56.4" x2="81" y1="272.2934" y2="272.2934"/><polygon fill="#181818" points="62.4,269.8934,56.4,272.2934,62.4,274.6934,60,272.2934" style="stroke:#181818;stroke-width:0.6;"/><text fill="#000000" font-family="sans-serif" font-size="7.8" lengthAdjust="spacing" textLength="100.8" x="60" y="261.3357">SceneManager.sceneLoaded</text><polygon fill="#FEFFDD" points="698.7,280.0934,766.5,280.0934,772.5,287.2934,766.5,295.0934,698.7,295.0934,692.7,287.2934,698.7,280.0934" style="stroke:#181818;stroke-width:0.3;"/><text fill="#000000" font-family="sans-serif" font-size="7.8" lengthAdjust="spacing" textLength="65.4" x="699.9" y="290.9104">OnPixelFixCreated</text><polygon fill="#FEFFDD" points="690.9,301.268,774.3,301.268,780.3,308.468,774.3,316.268,690.9,316.268,684.9,308.468,690.9,301.268" style="stroke:#181818;stroke-width:0.3;"/><text fill="#000000" font-family="sans-serif" font-size="7.8" lengthAdjust="spacing" textLength="81" x="692.1" y="312.085">OnCustomGUIAvailable</text><line style="stroke:#181818;stroke-width:0.6;" x1="52.8" x2="81" y1="333.4172" y2="333.4172"/><line style="stroke:#181818;stroke-width:0.6;" x1="81" x2="81" y1="333.4172" y2="341.2172"/><line style="stroke:#181818;stroke-width:0.6;" x1="56.4" x2="81" y1="341.2172" y2="341.2172"/><polygon fill="#181818" points="62.4,338.8172,56.4,341.2172,62.4,343.6172,60,341.2172" style="stroke:#181818;stroke-width:0.6;"/><text fill="#000000" font-family="sans-serif" font-size="7.8" lengthAdjust="spacing" textLength="84" x="60" y="330.2596">ObjectDB.CopyOtherDB</text><polygon fill="#FEFFDD" points="337.8,349.0172,438,349.0172,444,356.2172,438,364.0172,337.8,364.0172,331.8,356.2172,337.8,349.0172" style="stroke:#181818;stroke-width:0.3;"/><text fill="#000000" font-family="sans-serif" font-size="7.8" lengthAdjust="spacing" textLength="97.8" x="339" y="359.8342">OnVanillaCreaturesAvailable</text><polygon fill="#FEFFDD" points="418.8,370.1918,511.8,370.1918,517.8,377.3918,511.8,385.1918,418.8,385.1918,412.8,377.3918,418.8,370.1918" style="stroke:#181818;stroke-width:0.3;"/><text fill="#000000" font-family="sans-serif" font-size="7.8" lengthAdjust="spacing" textLength="90.6" x="420" y="381.0088">OnVanillaPrefabsAvailable</text><polygon fill="#FEFFDD" points="560.7,391.3664,644.7,391.3664,650.7,398.5664,644.7,406.3664,560.7,406.3664,554.7,398.5664,560.7,391.3664" style="stroke:#181818;stroke-width:0.3;"/><text fill="#000000" font-family="sans-serif" font-size="7.8" lengthAdjust="spacing" textLength="81.6" x="561.9" y="402.1834">OnItemsRegisteredFejd</text><path d="M6,412.541 L6,428.741 L99.6,428.741 L99.6,418.541 L93.6,412.541 L6,412.541 " fill="#ADD8E6" style="stroke:#181818;stroke-width:0.3;"/><path d="M93.6,412.541 L93.6,418.541 L99.6,418.541 L93.6,412.541 " fill="#ADD8E6" style="stroke:#181818;stroke-width:0.3;"/><text fill="#000000" font-family="sans-serif" font-size="7.8" lengthAdjust="spacing" textLength="81" x="9.6" y="423.958">Main menu interactable</text><rect fill="#EEEEEE" height="1.8" style="stroke:#EEEEEE;stroke-width:0.6;" width="855.3" x="3" y="444.9029"/><line style="stroke:#000000;stroke-width:0.6;" x1="3" x2="858.3" y1="444.9029" y2="444.9029"/><line style="stroke:#000000;stroke-width:0.6;" x1="3" x2="858.3" y1="446.7029" y2="446.7029"/><rect fill="#EEEEEE" height="15.1746" style="stroke:#000000;stroke-width:1.2;" width="68.4" x="396.45" y="437.9156"/><text fill="#000000" font-family="sans-serif" font-size="7.8" font-weight="bold" lengthAdjust="spacing" textLength="57.6" x="400.05" y="448.7326">Loading Scene</text><rect fill="#EEEEEE" height="1.8" style="stroke:#EEEEEE;stroke-width:0.6;" width="855.3" x="3" y="472.0775"/><line style="stroke:#000000;stroke-width:0.6;" x1="3" x2="858.3" y1="472.0775" y2="472.0775"/><line style="stroke:#000000;stroke-width:0.6;" x1="3" x2="858.3" y1="473.8775" y2="473.8775"/><rect fill="#EEEEEE" height="15.1746" style="stroke:#000000;stroke-width:1.2;" width="62.4" x="399.45" y="465.0902"/><text fill="#000000" font-family="sans-serif" font-size="7.8" font-weight="bold" lengthAdjust="spacing" textLength="49.2" x="403.05" y="475.9072">Game Scene</text><line style="stroke:#181818;stroke-width:0.6;" x1="52.8" x2="81" y1="500.2395" y2="500.2395"/><line style="stroke:#181818;stroke-width:0.6;" x1="81" x2="81" y1="500.2395" y2="508.0395"/><line style="stroke:#181818;stroke-width:0.6;" x1="56.4" x2="81" y1="508.0395" y2="508.0395"/><polygon fill="#181818" points="62.4,505.6395,56.4,508.0395,62.4,510.4395,60,508.0395" style="stroke:#181818;stroke-width:0.6;"/><text fill="#000000" font-family="sans-serif" font-size="7.8" lengthAdjust="spacing" textLength="64.2" x="60" y="497.0818">ZNetScene.Awake</text><polygon fill="#FEFFDD" points="346.2,515.8395,429.6,515.8395,435.6,523.0395,429.6,530.8395,346.2,530.8395,340.2,523.0395,346.2,515.8395" style="stroke:#181818;stroke-width:0.3;"/><text fill="#000000" font-family="sans-serif" font-size="7.8" lengthAdjust="spacing" textLength="81" x="347.4" y="526.6564">OnCreaturesRegistered</text><polygon fill="#FEFFDD" points="427.2,537.0141,503.4,537.0141,509.4,544.2141,503.4,552.0141,427.2,552.0141,421.2,544.2141,427.2,537.0141" style="stroke:#181818;stroke-width:0.3;"/><text fill="#000000" font-family="sans-serif" font-size="7.8" lengthAdjust="spacing" textLength="73.8" x="428.4" y="547.8311">OnPrefabsRegistered</text><line style="stroke:#181818;stroke-width:0.6;" x1="52.8" x2="81" y1="569.1633" y2="569.1633"/><line style="stroke:#181818;stroke-width:0.6;" x1="81" x2="81" y1="569.1633" y2="576.9633"/><line style="stroke:#181818;stroke-width:0.6;" x1="56.4" x2="81" y1="576.9633" y2="576.9633"/><polygon fill="#181818" points="62.4,574.5633,56.4,576.9633,62.4,579.3633,60,576.9633" style="stroke:#181818;stroke-width:0.6;"/><text fill="#000000" font-family="sans-serif" font-size="7.8" lengthAdjust="spacing" textLength="59.4" x="60" y="566.0057">ObjectDB.Awake</text><polygon fill="#FEFFDD" points="499.5,584.7633,573.3,584.7633,579.3,591.9633,573.3,599.7633,499.5,599.7633,493.5,591.9633,499.5,584.7633" style="stroke:#181818;stroke-width:0.3;"/><text fill="#000000" font-family="sans-serif" font-size="7.8" lengthAdjust="spacing" textLength="71.4" x="500.7" y="595.5803">OnPiecesRegistered</text><polygon fill="#FEFFDD" points="568.2,605.9379,637.2,605.9379,643.2,613.1379,637.2,620.9379,568.2,620.9379,562.2,613.1379,568.2,605.9379" style="stroke:#181818;stroke-width:0.3;"/><text fill="#000000" font-family="sans-serif" font-size="7.8" lengthAdjust="spacing" textLength="66.6" x="569.4" y="616.7549">OnItemsRegistered</text><line style="stroke:#181818;stroke-width:0.6;" x1="52.8" x2="81" y1="638.0871" y2="638.0871"/><line style="stroke:#181818;stroke-width:0.6;" x1="81" x2="81" y1="638.0871" y2="645.8871"/><line style="stroke:#181818;stroke-width:0.6;" x1="56.4" x2="81" y1="645.8871" y2="645.8871"/><polygon fill="#181818" points="62.4,643.4871,56.4,645.8871,62.4,648.2871,60,645.8871" style="stroke:#181818;stroke-width:0.6;"/><text fill="#000000" font-family="sans-serif" font-size="7.8" lengthAdjust="spacing" textLength="75.6" x="60" y="634.9295">ClutterSystem.Awake</text><polygon fill="#FEFFDD" points="623.4,653.6871,712.8,653.6871,718.8,660.8871,712.8,668.6871,623.4,668.6871,617.4,660.8871,623.4,653.6871" style="stroke:#181818;stroke-width:0.3;"/><text fill="#000000" font-family="sans-serif" font-size="7.8" lengthAdjust="spacing" textLength="87" x="624.6" y="664.5041">OnVanillaClutterAvailable</text><line style="stroke:#181818;stroke-width:0.6;" x1="52.8" x2="81" y1="685.8363" y2="685.8363"/><line style="stroke:#181818;stroke-width:0.6;" x1="81" x2="81" y1="685.8363" y2="693.6363"/><line style="stroke:#181818;stroke-width:0.6;" x1="56.4" x2="81" y1="693.6363" y2="693.6363"/><polygon fill="#181818" points="62.4,691.2363,56.4,693.6363,62.4,696.0363,60,693.6363" style="stroke:#181818;stroke-width:0.6;"/><text fill="#000000" font-family="sans-serif" font-size="7.8" lengthAdjust="spacing" textLength="100.8" x="60" y="682.6787">SceneManager.sceneLoaded</text><polygon fill="#FEFFDD" points="690.9,701.4363,774.3,701.4363,780.3,708.6363,774.3,716.4363,690.9,716.4363,684.9,708.6363,690.9,701.4363" style="stroke:#181818;stroke-width:0.3;"/><text fill="#000000" font-family="sans-serif" font-size="7.8" lengthAdjust="spacing" textLength="81" x="692.1" y="712.2533">OnCustomGUIAvailable</text><line style="stroke:#181818;stroke-width:0.6;" x1="52.8" x2="81" y1="733.5855" y2="733.5855"/><line style="stroke:#181818;stroke-width:0.6;" x1="81" x2="81" y1="733.5855" y2="741.3855"/><line style="stroke:#181818;stroke-width:0.6;" x1="56.4" x2="81" y1="741.3855" y2="741.3855"/><polygon fill="#181818" points="62.4,738.9855,56.4,741.3855,62.4,743.7855,60,741.3855" style="stroke:#181818;stroke-width:0.6;"/><text fill="#000000" font-family="sans-serif" font-size="7.8" lengthAdjust="spacing" textLength="100.2" x="60" y="730.4279">ZoneSystem.SetupLocations</text><polygon fill="#FEFFDD" points="618,749.1855,718.2,749.1855,724.2,756.3855,718.2,764.1855,618,764.1855,612,756.3855,618,749.1855" style="stroke:#181818;stroke-width:0.3;"/><text fill="#000000" font-family="sans-serif" font-size="7.8" lengthAdjust="spacing" textLength="97.8" x="619.2" y="760.0025">OnVanillaLocationsAvailable</text><line style="stroke:#181818;stroke-width:0.6;" x1="52.8" x2="81" y1="781.3348" y2="781.3348"/><line style="stroke:#181818;stroke-width:0.6;" x1="81" x2="81" y1="781.3348" y2="789.1348"/><line style="stroke:#181818;stroke-width:0.6;" x1="56.4" x2="81" y1="789.1348" y2="789.1348"/><polygon fill="#181818" points="62.4,786.7348,56.4,789.1348,62.4,791.5348,60,789.1348" style="stroke:#181818;stroke-width:0.6;"/><text fill="#000000" font-family="sans-serif" font-size="7.8" lengthAdjust="spacing" textLength="55.2" x="60" y="778.1771">Minimap.Awake</text><polygon fill="#FEFFDD" points="762.3,796.9348,843.9,796.9348,849.9,804.1348,843.9,811.9348,762.3,811.9348,756.3,804.1348,762.3,796.9348" style="stroke:#181818;stroke-width:0.3;"/><text fill="#000000" font-family="sans-serif" font-size="7.8" lengthAdjust="spacing" textLength="79.2" x="763.5" y="807.7518">OnVanillaMapAvailable</text><line style="stroke:#181818;stroke-width:0.6;" x1="52.8" x2="81" y1="829.084" y2="829.084"/><line style="stroke:#181818;stroke-width:0.6;" x1="81" x2="81" y1="829.084" y2="836.884"/><line style="stroke:#181818;stroke-width:0.6;" x1="56.4" x2="81" y1="836.884" y2="836.884"/><polygon fill="#181818" points="62.4,834.484,56.4,836.884,62.4,839.284,60,836.884" style="stroke:#181818;stroke-width:0.6;"/><text fill="#000000" font-family="sans-serif" font-size="7.8" lengthAdjust="spacing" textLength="79.8" x="60" y="825.9264">Minimap.LoadMapData</text><polygon fill="#FEFFDD" points="756.9,844.684,849.3,844.684,855.3,851.884,849.3,859.684,756.9,859.684,750.9,851.884,756.9,844.684" style="stroke:#181818;stroke-width:0.3;"/><text fill="#000000" font-family="sans-serif" font-size="7.8" lengthAdjust="spacing" textLength="90" x="758.1" y="855.501">OnVanillaMapDataLoaded</text><path d="M14.7,865.8586 L14.7,882.0586 L90.9,882.0586 L90.9,871.8586 L84.9,865.8586 L14.7,865.8586 " fill="#ADD8E6" style="stroke:#181818;stroke-width:0.3;"/><path d="M84.9,865.8586 L84.9,871.8586 L90.9,871.8586 L84.9,865.8586 " fill="#ADD8E6" style="stroke:#181818;stroke-width:0.3;"/><text fill="#000000" font-family="sans-serif" font-size="7.8" lengthAdjust="spacing" textLength="63.6" x="18.3" y="877.2756">Game interactable</text><!--SRC=[pLLDRzim3BtxLt3eeK23vWS4I8TyB466UIaMh8UY5yPcR7MoPCXoclJNJvATsF7ifaqloy68H3u-yP6KhgzXm-MBzoLL62K8ckGhQ9MJ5xEGO2EbNikTvwMeD0jOYaB30_AOM7AoDwPq8RuPH-CDtwNEXV1bc7bWVe7ad0BDfCWgaqSY11UwGZZlUjGVCa3ENj5YVHGOaVh7Pw88TQweotwlQ8FhJYkZe1Ewq9HqsHwbwCJDVo-wJ3uJBC7qO3wA42cPfp2J2WY3618Za8L-lRqxAWOtDmEZ28PaCFidSP3S-bLEjtUrHQy7Lvn5iOuKaHZ0w0N_a2DrV9ut78AFJ81F8eTLG89WEFIyii8sMFctrnl0XETQarhjCwDBluXboMCXDO7SagghCe2bU431ECSIEDeYuxZcv8KcISssQ627PkhWdD5pkD96m3pjhyXyvpbhahPqYIMlRuz2eze7Q9qKPQn-PXU5y4tggjAMyPxjYC_OphNaEUT9dccPcBrBP5ckdyr4JSVzYKptInsJcewRT8t1W7f1IbDMSJV09rDJGnRx5GwQmDhCM9XTPhyeOgPd58MsdArfLW4E2HUDk-Ov3OeUJMoFCc7Y6BWxisrVMnScegfvpTuS4oetEjePh8YFFqaxh_PURkZdQdRGhSheh72bOZN4UyiCjJgtdh1-UHNzPzPldEtjshIS2_wdg-2ocRnup8eMCKcKIRhRnzufxY5xNxP7zul8oxUYNTxJXwJ6wMFwAJOhgeanHOqVuRJ-PJrQIE7CWBk9FPbj-0i0]--></g></svg>