<?xml version="1.0" encoding="us-ascii" standalone="no"?><svg xmlns="http://www.w3.org/2000/svg" xmlns:xlink="http://www.w3.org/1999/xlink" contentStyleType="text/css" height="708.5px" preserveAspectRatio="none" style="width:720px;height:708px;background:#FFFFFF;" version="1.1" viewBox="0 0 720 708" width="720.5px" zoomAndPan="magnify"><defs/><g><rect fill="#DDDDDD" height="702.9033" style="stroke:#181818;stroke-width:0.25;" width="50" x="156.25" y="3"/><text fill="#000000" font-family="sans-serif" font-size="6.5" font-weight="bold" lengthAdjust="spacing" textLength="38" x="162.25" y="10.0142">JotunnMods</text><rect fill="#DDDDDD" height="702.9033" style="stroke:#181818;stroke-width:0.25;" width="489" x="212.25" y="3"/><text fill="#000000" font-family="sans-serif" font-size="6.5" font-weight="bold" lengthAdjust="spacing" textLength="21.5" x="446" y="10.0142">Jotunn</text><line style="stroke:#181818;stroke-width:0.25;stroke-dasharray:5.0,5.0;" x1="44" x2="44" y1="32.4561" y2="702.9033"/><rect fill="#FFFFFF" height="24.1455" style="stroke:#181818;stroke-width:0.5;" width="5" x="41.5" y="147.3291"/><rect fill="#FFFFFF" height="41.791" style="stroke:#181818;stroke-width:0.5;" width="5" x="41.5" y="187.1201"/><rect fill="#FFFFFF" height="59.4365" style="stroke:#181818;stroke-width:0.5;" width="5" x="41.5" y="244.5566"/><rect fill="#FFFFFF" height="41.791" style="stroke:#181818;stroke-width:0.5;" width="5" x="41.5" y="383.5752"/><rect fill="#FFFFFF" height="41.791" style="stroke:#181818;stroke-width:0.5;" width="5" x="41.5" y="441.0117"/><rect fill="#FFFFFF" height="24.1455" style="stroke:#181818;stroke-width:0.5;" width="5" x="41.5" y="498.4482"/><rect fill="#FFFFFF" height="24.1455" style="stroke:#181818;stroke-width:0.5;" width="5" x="41.5" y="538.2393"/><rect fill="#FFFFFF" height="24.1455" style="stroke:#181818;stroke-width:0.5;" width="5" x="41.5" y="578.0303"/><rect fill="#FFFFFF" height="24.1455" style="stroke:#181818;stroke-width:0.5;" width="5" x="41.5" y="617.8213"/><rect fill="#FFFFFF" height="24.1455" style="stroke:#181818;stroke-width:0.5;" width="5" x="41.5" y="657.6123"/><line style="stroke:#181818;stroke-width:0.25;stroke-dasharray:5.0,5.0;" x1="137" x2="137" y1="32.4561" y2="702.9033"/><line style="stroke:#181818;stroke-width:0.25;stroke-dasharray:5.0,5.0;" x1="181.25" x2="181.25" y1="32.4561" y2="702.9033"/><rect fill="#90EE90" height="607.3652" style="stroke:#181818;stroke-width:0.5;" width="5" x="178.75" y="95.5381"/><line style="stroke:#181818;stroke-width:0.25;stroke-dasharray:5.0,5.0;" x1="250.25" x2="250.25" y1="32.4561" y2="702.9033"/><line style="stroke:#181818;stroke-width:0.25;stroke-dasharray:5.0,5.0;" x1="322.75" x2="322.75" y1="32.4561" y2="702.9033"/><line style="stroke:#181818;stroke-width:0.25;stroke-dasharray:5.0,5.0;" x1="387.25" x2="387.25" y1="32.4561" y2="702.9033"/><line style="stroke:#181818;stroke-width:0.25;stroke-dasharray:5.0,5.0;" x1="446.5" x2="446.5" y1="32.4561" y2="702.9033"/><line style="stroke:#181818;stroke-width:0.25;stroke-dasharray:5.0,5.0;" x1="501.75" x2="501.75" y1="32.4561" y2="702.9033"/><line style="stroke:#181818;stroke-width:0.25;stroke-dasharray:5.0,5.0;" x1="556.25" x2="556.25" y1="32.4561" y2="702.9033"/><line style="stroke:#181818;stroke-width:0.25;stroke-dasharray:5.0,5.0;" x1="610" x2="610" y1="32.4561" y2="702.9033"/><line style="stroke:#181818;stroke-width:0.25;stroke-dasharray:5.0,5.0;" x1="668.75" x2="668.75" y1="32.4561" y2="702.9033"/><rect fill="#E2E2F0" height="16.3105" rx="1.25" ry="1.25" style="stroke:#181818;stroke-width:0.25;" width="32" x="28" y="15.6455"/><text fill="#000000" font-family="sans-serif" font-size="7" lengthAdjust="spacing" textLength="25" x="31.5" y="26.6992">Valheim</text><rect fill="#E2E2F0" height="16.3105" rx="1.25" ry="1.25" style="stroke:#181818;stroke-width:0.25;" width="32.5" x="120.75" y="15.6455"/><text fill="#000000" font-family="sans-serif" font-size="7" lengthAdjust="spacing" textLength="25.5" x="124.25" y="26.6992">BepInEx</text><rect fill="#E2E2F0" height="16.3105" style="stroke:#181818;stroke-width:0.25;" width="41.5" x="161.5" y="13.6455"/><rect fill="#E2E2F0" height="16.3105" style="stroke:#181818;stroke-width:0.25;" width="41.5" x="159.5" y="15.6455"/><text fill="#000000" font-family="sans-serif" font-size="7" lengthAdjust="spacing" textLength="34.5" x="163" y="26.6992">JotunnMod</text><rect fill="#E2E2F0" height="16.3105" rx="1.25" ry="1.25" style="stroke:#181818;stroke-width:0.25;" width="72" x="214.25" y="15.6455"/><text fill="#000000" font-family="sans-serif" font-size="7" lengthAdjust="spacing" textLength="65" x="217.75" y="26.6992">LocalizationManager</text><rect fill="#E2E2F0" height="16.3105" rx="1.25" ry="1.25" style="stroke:#181818;stroke-width:0.25;" width="63" x="291.25" y="15.6455"/><text fill="#000000" font-family="sans-serif" font-size="7" lengthAdjust="spacing" textLength="56" x="294.75" y="26.6992">CreatureManager</text><rect fill="#E2E2F0" height="16.3105" rx="1.25" ry="1.25" style="stroke:#181818;stroke-width:0.25;" width="56" x="359.25" y="15.6455"/><text fill="#000000" font-family="sans-serif" font-size="7" lengthAdjust="spacing" textLength="49" x="362.75" y="26.6992">PrefabManager</text><rect fill="#E2E2F0" height="16.3105" rx="1.25" ry="1.25" style="stroke:#181818;stroke-width:0.25;" width="52.5" x="420.25" y="15.6455"/><text fill="#000000" font-family="sans-serif" font-size="7" lengthAdjust="spacing" textLength="45.5" x="423.75" y="26.6992">PieceManager</text><rect fill="#E2E2F0" height="16.3105" rx="1.25" ry="1.25" style="stroke:#181818;stroke-width:0.25;" width="48" x="477.75" y="15.6455"/><text fill="#000000" font-family="sans-serif" font-size="7" lengthAdjust="spacing" textLength="41" x="481.25" y="26.6992">ItemManager</text><rect fill="#E2E2F0" height="16.3105" rx="1.25" ry="1.25" style="stroke:#181818;stroke-width:0.25;" width="51" x="530.75" y="15.6455"/><text fill="#000000" font-family="sans-serif" font-size="7" lengthAdjust="spacing" textLength="44" x="534.25" y="26.6992">ZoneManager</text><rect fill="#E2E2F0" height="16.3105" rx="1.25" ry="1.25" style="stroke:#181818;stroke-width:0.25;" width="46.5" x="586.75" y="15.6455"/><text fill="#000000" font-family="sans-serif" font-size="7" lengthAdjust="spacing" textLength="39.5" x="590.25" y="26.6992">GUIManager</text><rect fill="#E2E2F0" height="16.3105" rx="1.25" ry="1.25" style="stroke:#181818;stroke-width:0.25;" width="61" x="638.25" y="15.6455"/><text fill="#000000" font-family="sans-serif" font-size="7" lengthAdjust="spacing" textLength="54" x="641.75" y="26.6992">MinimapManager</text><path d="M20,38.4561 L86.5,38.4561 L86.5,43.1016 L81.5,48.1016 L20,48.1016 L20,38.4561 " fill="#EEEEEE" style="stroke:#000000;stroke-width:0.75;"/><rect fill="none" height="61.082" style="stroke:#000000;stroke-width:0.75;" width="198.25" x="20" y="38.4561"/><text fill="#000000" font-family="sans-serif" font-size="6.5" font-weight="bold" lengthAdjust="spacing" textLength="44" x="27.5" y="45.9702">For each mod</text><polygon fill="#181818" points="175.25,71.3926,180.25,73.3926,175.25,75.3926,177.25,73.3926" style="stroke:#181818;stroke-width:0.5;"/><line style="stroke:#181818;stroke-width:0.5;" x1="139.25" x2="178.25" y1="73.3926" y2="73.3926"/><text fill="#000000" font-family="sans-serif" font-size="6.5" lengthAdjust="spacing" textLength="30" x="142.75" y="62.1157">Loaded by</text><text fill="#000000" font-family="sans-serif" font-size="6.5" lengthAdjust="spacing" textLength="24.5" x="142.75" y="70.7612">BepInEx</text><line style="stroke:#181818;stroke-width:0.5;" x1="181.25" x2="204.75" y1="89.0381" y2="89.0381"/><line style="stroke:#181818;stroke-width:0.5;" x1="204.75" x2="204.75" y1="89.0381" y2="95.5381"/><line style="stroke:#181818;stroke-width:0.5;" x1="184.25" x2="204.75" y1="95.5381" y2="95.5381"/><polygon fill="#181818" points="189.25,93.5381,184.25,95.5381,189.25,97.5381,187.25,95.5381" style="stroke:#181818;stroke-width:0.5;"/><text fill="#000000" font-family="sans-serif" font-size="6.5" lengthAdjust="spacing" textLength="19.5" x="187.25" y="86.4067">Awake</text><rect fill="#EEEEEE" height="1.5" style="stroke:#EEEEEE;stroke-width:0.5;" width="712.25" x="2.5" y="117.3608"/><line style="stroke:#000000;stroke-width:0.5;" x1="2.5" x2="714.75" y1="117.3608" y2="117.3608"/><line style="stroke:#000000;stroke-width:0.5;" x1="2.5" x2="714.75" y1="118.8608" y2="118.8608"/><rect fill="#EEEEEE" height="12.6455" style="stroke:#000000;stroke-width:1.0;" width="66" x="325.625" y="111.5381"/><text fill="#000000" font-family="sans-serif" font-size="6.5" font-weight="bold" lengthAdjust="spacing" textLength="57" x="328.625" y="120.5522">Main Menu Scene</text><line style="stroke:#181818;stroke-width:0.5;" x1="44" x2="67.5" y1="140.8291" y2="140.8291"/><line style="stroke:#181818;stroke-width:0.5;" x1="67.5" x2="67.5" y1="140.8291" y2="147.3291"/><line style="stroke:#181818;stroke-width:0.5;" x1="47" x2="67.5" y1="147.3291" y2="147.3291"/><polygon fill="#181818" points="52,145.3291,47,147.3291,52,149.3291,50,147.3291" style="stroke:#181818;stroke-width:0.5;"/><text fill="#000000" font-family="sans-serif" font-size="6.5" lengthAdjust="spacing" textLength="63" x="50" y="138.1978">ClutterSystem.Awake</text><polygon fill="#FEFFDD" points="519,153.8291,593.5,153.8291,598.5,159.8291,593.5,166.3291,519,166.3291,514,159.8291,519,153.8291" style="stroke:#181818;stroke-width:0.25;"/><text fill="#000000" font-family="sans-serif" font-size="6.5" lengthAdjust="spacing" textLength="72.5" x="520" y="162.8433">OnVanillaClutterAvailable</text><line style="stroke:#181818;stroke-width:0.5;" x1="44" x2="67.5" y1="180.6201" y2="180.6201"/><line style="stroke:#181818;stroke-width:0.5;" x1="67.5" x2="67.5" y1="180.6201" y2="187.1201"/><line style="stroke:#181818;stroke-width:0.5;" x1="47" x2="67.5" y1="187.1201" y2="187.1201"/><polygon fill="#181818" points="52,185.1201,47,187.1201,52,189.1201,50,187.1201" style="stroke:#181818;stroke-width:0.5;"/><text fill="#000000" font-family="sans-serif" font-size="6.5" lengthAdjust="spacing" textLength="62.5" x="50" y="177.9888">FejdStartup.SetupGui</text><polygon fill="#FEFFDD" points="575.25,193.6201,644.75,193.6201,649.75,199.6201,644.75,206.1201,575.25,206.1201,570.25,199.6201,575.25,193.6201" style="stroke:#181818;stroke-width:0.25;"/><text fill="#000000" font-family="sans-serif" font-size="6.5" lengthAdjust="spacing" textLength="67.5" x="576.25" y="202.6343">OnCustomGUIAvailable</text><polygon fill="#FEFFDD" points="218.5,211.2656,282,211.2656,287,217.2656,282,223.7656,218.5,223.7656,213.5,217.2656,218.5,211.2656" style="stroke:#181818;stroke-width:0.25;"/><text fill="#000000" font-family="sans-serif" font-size="6.5" lengthAdjust="spacing" textLength="61.5" x="219.5" y="220.2798">OnLocalizationAdded</text><line style="stroke:#181818;stroke-width:0.5;" x1="44" x2="67.5" y1="238.0566" y2="238.0566"/><line style="stroke:#181818;stroke-width:0.5;" x1="67.5" x2="67.5" y1="238.0566" y2="244.5566"/><line style="stroke:#181818;stroke-width:0.5;" x1="47" x2="67.5" y1="244.5566" y2="244.5566"/><polygon fill="#181818" points="52,242.5566,47,244.5566,52,246.5566,50,244.5566" style="stroke:#181818;stroke-width:0.5;"/><text fill="#000000" font-family="sans-serif" font-size="6.5" lengthAdjust="spacing" textLength="70" x="50" y="235.4253">ObjectDB.CopyOtherDB</text><polygon fill="#FEFFDD" points="281,251.0566,364.5,251.0566,369.5,257.0566,364.5,263.5566,281,263.5566,276,257.0566,281,251.0566" style="stroke:#181818;stroke-width:0.25;"/><text fill="#000000" font-family="sans-serif" font-size="6.5" lengthAdjust="spacing" textLength="81.5" x="282" y="260.0708">OnVanillaCreaturesAvailable</text><polygon fill="#FEFFDD" points="348.5,268.7021,426,268.7021,431,274.7021,426,281.2021,348.5,281.2021,343.5,274.7021,348.5,268.7021" style="stroke:#181818;stroke-width:0.25;"/><text fill="#000000" font-family="sans-serif" font-size="6.5" lengthAdjust="spacing" textLength="75.5" x="349.5" y="277.7163">OnVanillaPrefabsAvailable</text><polygon fill="#FEFFDD" points="466.75,286.3477,536.75,286.3477,541.75,292.3477,536.75,298.8477,466.75,298.8477,461.75,292.3477,466.75,286.3477" style="stroke:#181818;stroke-width:0.25;"/><text fill="#000000" font-family="sans-serif" font-size="6.5" lengthAdjust="spacing" textLength="68" x="467.75" y="295.3618">OnItemsRegisteredFejd</text><path d="M5,303.9932 L5,317.4932 L83,317.4932 L83,308.9932 L78,303.9932 L5,303.9932 " fill="#ADD8E6" style="stroke:#181818;stroke-width:0.25;"/><path d="M78,303.9932 L78,308.9932 L83,308.9932 L78,303.9932 " fill="#ADD8E6" style="stroke:#181818;stroke-width:0.25;"/><text fill="#000000" font-family="sans-serif" font-size="6.5" lengthAdjust="spacing" textLength="67.5" x="8" y="313.5073">Main menu interactable</text><rect fill="#EEEEEE" height="1.5" style="stroke:#EEEEEE;stroke-width:0.5;" width="712.25" x="2.5" y="330.9614"/><line style="stroke:#000000;stroke-width:0.5;" x1="2.5" x2="714.75" y1="330.9614" y2="330.9614"/><line style="stroke:#000000;stroke-width:0.5;" x1="2.5" x2="714.75" y1="332.4614" y2="332.4614"/><rect fill="#EEEEEE" height="12.6455" style="stroke:#000000;stroke-width:1.0;" width="57" x="330.125" y="325.1387"/><text fill="#000000" font-family="sans-serif" font-size="6.5" font-weight="bold" lengthAdjust="spacing" textLength="48" x="333.125" y="334.1528">Loading Scene</text><rect fill="#EEEEEE" height="1.5" style="stroke:#EEEEEE;stroke-width:0.5;" width="712.25" x="2.5" y="353.6069"/><line style="stroke:#000000;stroke-width:0.5;" x1="2.5" x2="714.75" y1="353.6069" y2="353.6069"/><line style="stroke:#000000;stroke-width:0.5;" x1="2.5" x2="714.75" y1="355.1069" y2="355.1069"/><rect fill="#EEEEEE" height="12.6455" style="stroke:#000000;stroke-width:1.0;" width="52" x="332.625" y="347.7842"/><text fill="#000000" font-family="sans-serif" font-size="6.5" font-weight="bold" lengthAdjust="spacing" textLength="41" x="335.625" y="356.7983">Game Scene</text><line style="stroke:#181818;stroke-width:0.5;" x1="44" x2="67.5" y1="377.0752" y2="377.0752"/><line style="stroke:#181818;stroke-width:0.5;" x1="67.5" x2="67.5" y1="377.0752" y2="383.5752"/><line style="stroke:#181818;stroke-width:0.5;" x1="47" x2="67.5" y1="383.5752" y2="383.5752"/><polygon fill="#181818" points="52,381.5752,47,383.5752,52,385.5752,50,383.5752" style="stroke:#181818;stroke-width:0.5;"/><text fill="#000000" font-family="sans-serif" font-size="6.5" lengthAdjust="spacing" textLength="53.5" x="50" y="374.4438">ZNetScene.Awake</text><polygon fill="#FEFFDD" points="288,390.0752,357.5,390.0752,362.5,396.0752,357.5,402.5752,288,402.5752,283,396.0752,288,390.0752" style="stroke:#181818;stroke-width:0.25;"/><text fill="#000000" font-family="sans-serif" font-size="6.5" lengthAdjust="spacing" textLength="67.5" x="289" y="399.0894">OnCreaturesRegistered</text><polygon fill="#FEFFDD" points="355.5,407.7207,419,407.7207,424,413.7207,419,420.2207,355.5,420.2207,350.5,413.7207,355.5,407.7207" style="stroke:#181818;stroke-width:0.25;"/><text fill="#000000" font-family="sans-serif" font-size="6.5" lengthAdjust="spacing" textLength="61.5" x="356.5" y="416.7349">OnPrefabsRegistered</text><line style="stroke:#181818;stroke-width:0.5;" x1="44" x2="67.5" y1="434.5117" y2="434.5117"/><line style="stroke:#181818;stroke-width:0.5;" x1="67.5" x2="67.5" y1="434.5117" y2="441.0117"/><line style="stroke:#181818;stroke-width:0.5;" x1="47" x2="67.5" y1="441.0117" y2="441.0117"/><polygon fill="#181818" points="52,439.0117,47,441.0117,52,443.0117,50,441.0117" style="stroke:#181818;stroke-width:0.5;"/><text fill="#000000" font-family="sans-serif" font-size="6.5" lengthAdjust="spacing" textLength="49.5" x="50" y="431.8804">ObjectDB.Awake</text><polygon fill="#FEFFDD" points="473,447.5117,530.5,447.5117,535.5,453.5117,530.5,460.0117,473,460.0117,468,453.5117,473,447.5117" style="stroke:#181818;stroke-width:0.25;"/><text fill="#000000" font-family="sans-serif" font-size="6.5" lengthAdjust="spacing" textLength="55.5" x="474" y="456.5259">OnItemsRegistered</text><polygon fill="#FEFFDD" points="415.75,465.1572,477.25,465.1572,482.25,471.1572,477.25,477.6572,415.75,477.6572,410.75,471.1572,415.75,465.1572" style="stroke:#181818;stroke-width:0.25;"/><text fill="#000000" font-family="sans-serif" font-size="6.5" lengthAdjust="spacing" textLength="59.5" x="416.75" y="474.1714">OnPiecesRegistered</text><line style="stroke:#181818;stroke-width:0.5;" x1="44" x2="67.5" y1="491.9482" y2="491.9482"/><line style="stroke:#181818;stroke-width:0.5;" x1="67.5" x2="67.5" y1="491.9482" y2="498.4482"/><line style="stroke:#181818;stroke-width:0.5;" x1="47" x2="67.5" y1="498.4482" y2="498.4482"/><polygon fill="#181818" points="52,496.4482,47,498.4482,52,500.4482,50,498.4482" style="stroke:#181818;stroke-width:0.5;"/><text fill="#000000" font-family="sans-serif" font-size="6.5" lengthAdjust="spacing" textLength="63" x="50" y="489.3169">ClutterSystem.Awake</text><polygon fill="#FEFFDD" points="519,504.9482,593.5,504.9482,598.5,510.9482,593.5,517.4482,519,517.4482,514,510.9482,519,504.9482" style="stroke:#181818;stroke-width:0.25;"/><text fill="#000000" font-family="sans-serif" font-size="6.5" lengthAdjust="spacing" textLength="72.5" x="520" y="513.9624">OnVanillaClutterAvailable</text><line style="stroke:#181818;stroke-width:0.5;" x1="44" x2="67.5" y1="531.7393" y2="531.7393"/><line style="stroke:#181818;stroke-width:0.5;" x1="67.5" x2="67.5" y1="531.7393" y2="538.2393"/><line style="stroke:#181818;stroke-width:0.5;" x1="47" x2="67.5" y1="538.2393" y2="538.2393"/><polygon fill="#181818" points="52,536.2393,47,538.2393,52,540.2393,50,538.2393" style="stroke:#181818;stroke-width:0.5;"/><text fill="#000000" font-family="sans-serif" font-size="6.5" lengthAdjust="spacing" textLength="33.5" x="50" y="529.1079">Game.Start</text><polygon fill="#FEFFDD" points="575.25,544.7393,644.75,544.7393,649.75,550.7393,644.75,557.2393,575.25,557.2393,570.25,550.7393,575.25,544.7393" style="stroke:#181818;stroke-width:0.25;"/><text fill="#000000" font-family="sans-serif" font-size="6.5" lengthAdjust="spacing" textLength="67.5" x="576.25" y="553.7534">OnCustomGUIAvailable</text><line style="stroke:#181818;stroke-width:0.5;" x1="44" x2="67.5" y1="571.5303" y2="571.5303"/><line style="stroke:#181818;stroke-width:0.5;" x1="67.5" x2="67.5" y1="571.5303" y2="578.0303"/><line style="stroke:#181818;stroke-width:0.5;" x1="47" x2="67.5" y1="578.0303" y2="578.0303"/><polygon fill="#181818" points="52,576.0303,47,578.0303,52,580.0303,50,578.0303" style="stroke:#181818;stroke-width:0.5;"/><text fill="#000000" font-family="sans-serif" font-size="6.5" lengthAdjust="spacing" textLength="83.5" x="50" y="568.8989">ZoneSystem.SetupLocations</text><polygon fill="#FEFFDD" points="519.75,584.5303,592.75,584.5303,597.75,590.5303,592.75,597.0303,519.75,597.0303,514.75,590.5303,519.75,584.5303" style="stroke:#181818;stroke-width:0.25;"/><text fill="#000000" font-family="sans-serif" font-size="6.5" lengthAdjust="spacing" textLength="71" x="520.75" y="593.5444">OnVanillaZonesAvailable</text><line style="stroke:#181818;stroke-width:0.5;" x1="44" x2="67.5" y1="611.3213" y2="611.3213"/><line style="stroke:#181818;stroke-width:0.5;" x1="67.5" x2="67.5" y1="611.3213" y2="617.8213"/><line style="stroke:#181818;stroke-width:0.5;" x1="47" x2="67.5" y1="617.8213" y2="617.8213"/><polygon fill="#181818" points="52,615.8213,47,617.8213,52,619.8213,50,617.8213" style="stroke:#181818;stroke-width:0.5;"/><text fill="#000000" font-family="sans-serif" font-size="6.5" lengthAdjust="spacing" textLength="40.5" x="50" y="608.6899">Minimap.Start</text><polygon fill="#FEFFDD" points="634.75,624.3213,702.75,624.3213,707.75,630.3213,702.75,636.8213,634.75,636.8213,629.75,630.3213,634.75,624.3213" style="stroke:#181818;stroke-width:0.25;"/><text fill="#000000" font-family="sans-serif" font-size="6.5" lengthAdjust="spacing" textLength="66" x="635.75" y="633.3354">OnVanillaMapAvailable</text><line style="stroke:#181818;stroke-width:0.5;" x1="44" x2="67.5" y1="651.1123" y2="651.1123"/><line style="stroke:#181818;stroke-width:0.5;" x1="67.5" x2="67.5" y1="651.1123" y2="657.6123"/><line style="stroke:#181818;stroke-width:0.5;" x1="47" x2="67.5" y1="657.6123" y2="657.6123"/><polygon fill="#181818" points="52,655.6123,47,657.6123,52,659.6123,50,657.6123" style="stroke:#181818;stroke-width:0.5;"/><text fill="#000000" font-family="sans-serif" font-size="6.5" lengthAdjust="spacing" textLength="66.5" x="50" y="648.481">Minimap.LoadMapData</text><polygon fill="#FEFFDD" points="630.25,664.1123,707.25,664.1123,712.25,670.1123,707.25,676.6123,630.25,676.6123,625.25,670.1123,630.25,664.1123" style="stroke:#181818;stroke-width:0.25;"/><text fill="#000000" font-family="sans-serif" font-size="6.5" lengthAdjust="spacing" textLength="75" x="631.25" y="673.1265">OnVanillaMapDataLoaded</text><path d="M12.25,681.7578 L12.25,695.2578 L75.75,695.2578 L75.75,686.7578 L70.75,681.7578 L12.25,681.7578 " fill="#ADD8E6" style="stroke:#181818;stroke-width:0.25;"/><path d="M70.75,681.7578 L70.75,686.7578 L75.75,686.7578 L70.75,681.7578 " fill="#ADD8E6" style="stroke:#181818;stroke-width:0.25;"/><text fill="#000000" font-family="sans-serif" font-size="6.5" lengthAdjust="spacing" textLength="53" x="15.25" y="691.272">Game interactable</text><!--SRC=[nLLDRzf04BtlhvYgXqX1uGTO8XKV3QAgIrNK7A9S1dkmDrtlMkirAVdrtLqRR8YT1dee1uHdvksRUVl6N5t1HgXdzY7Nc6G8XjGB65qIItbCi57AhDLlndBKXaSyHsdW7aLAF3kAJIXVoC-sq5R35sLAAKCL5mpi9r92K6IuaaMJOYHZy4St25_TFlMhYb3m5tJO42Kcf5_LJ3MXAJNrvRzhsk2wDyifweKk36LzkGSbUt7pduk-LCWbpp3VfmyY95gLETmf3OHH2faLo44_tTmU58Fhwy0gWZ5PpEvHxYLtTKtHpMthOJ20Zu8dgKaqaGnW_8o_o9DwFiP68mYHImX9bh2AI1ACHepLD-mEgtyE1W5CHMaCwTMkiBeCgxCSUIgL8L1RqcrL0bZAUvHS2Ao1uoroWMj1BBP36hv52zkRgOVpZfxYbR42blbmHVPxNl9JqaPknpaj2wCo6sleJkexNEM0xV0ujYgVqUPo_MGTFfiCfohVBKrAUZOvfJqnQbkVEbFqjdnauXQoYlVZMWvsAFTO_A24snlK53jnEuTi3jYFMzbeBKeAAiTapZ5SsdCit5CxCpbxSfaqLhAnEMPK1zumryCtChwesrWTuXrKQmRwgsorNYt41NVSsU3RIhzghFNQyNsvvylQ-XzRwQvqwDVox5ryFudhkfxARxxRJ_ydyhxnNBIuXBT-HNVFT_p-Rj65cFyBcLiSUyGC3Pv3wUghluGBzjWlvj4Amny0]--></g></svg>